%TF.GenerationSoftware,KiCad,Pcbnew,6.0.2+dfsg-1*%
%TF.CreationDate,2024-02-23T08:38:29-06:00*%
%TF.ProjectId,Backplan2,4261636b-706c-4616-9e32-2e6b69636164,rev?*%
%TF.SameCoordinates,Original*%
%TF.FileFunction,Soldermask,Top*%
%TF.FilePolarity,Negative*%
%FSLAX46Y46*%
G04 Gerber Fmt 4.6, Leading zero omitted, Abs format (unit mm)*
G04 Created by KiCad (PCBNEW 6.0.2+dfsg-1) date 2024-02-23 08:38:29*
%MOMM*%
%LPD*%
G01*
G04 APERTURE LIST*
%ADD10O,1.700000X1.700000*%
%ADD11R,1.700000X1.700000*%
%ADD12R,1.200000X1.200000*%
%ADD13C,1.200000*%
%ADD14C,10.160000*%
G04 APERTURE END LIST*
D10*
%TO.C,J5*%
X72460000Y-78260000D03*
X75000000Y-78260000D03*
X72460000Y-75720000D03*
X75000000Y-75720000D03*
X72460000Y-73180000D03*
X75000000Y-73180000D03*
X72460000Y-70640000D03*
X75000000Y-70640000D03*
X72460000Y-68100000D03*
X75000000Y-68100000D03*
X72460000Y-65560000D03*
X75000000Y-65560000D03*
X72460000Y-63020000D03*
X75000000Y-63020000D03*
X72460000Y-60480000D03*
X75000000Y-60480000D03*
X72460000Y-57940000D03*
X75000000Y-57940000D03*
X72460000Y-55400000D03*
X75000000Y-55400000D03*
X72460000Y-52860000D03*
X75000000Y-52860000D03*
X72460000Y-50320000D03*
X75000000Y-50320000D03*
X72460000Y-47780000D03*
X75000000Y-47780000D03*
X72460000Y-45240000D03*
X75000000Y-45240000D03*
X72460000Y-42700000D03*
X75000000Y-42700000D03*
X72460000Y-40160000D03*
X75000000Y-40160000D03*
X72460000Y-37620000D03*
X75000000Y-37620000D03*
X72460000Y-35080000D03*
X75000000Y-35080000D03*
X72460000Y-32540000D03*
X75000000Y-32540000D03*
X72460000Y-30000000D03*
D11*
X75000000Y-30000000D03*
%TD*%
%TO.C,J7*%
X95000000Y-30000000D03*
D10*
X92460000Y-30000000D03*
X95000000Y-32540000D03*
X92460000Y-32540000D03*
X95000000Y-35080000D03*
X92460000Y-35080000D03*
X95000000Y-37620000D03*
X92460000Y-37620000D03*
X95000000Y-40160000D03*
X92460000Y-40160000D03*
X95000000Y-42700000D03*
X92460000Y-42700000D03*
X95000000Y-45240000D03*
X92460000Y-45240000D03*
X95000000Y-47780000D03*
X92460000Y-47780000D03*
X95000000Y-50320000D03*
X92460000Y-50320000D03*
X95000000Y-52860000D03*
X92460000Y-52860000D03*
X95000000Y-55400000D03*
X92460000Y-55400000D03*
X95000000Y-57940000D03*
X92460000Y-57940000D03*
X95000000Y-60480000D03*
X92460000Y-60480000D03*
X95000000Y-63020000D03*
X92460000Y-63020000D03*
X95000000Y-65560000D03*
X92460000Y-65560000D03*
X95000000Y-68100000D03*
X92460000Y-68100000D03*
X95000000Y-70640000D03*
X92460000Y-70640000D03*
X95000000Y-73180000D03*
X92460000Y-73180000D03*
X95000000Y-75720000D03*
X92460000Y-75720000D03*
X95000000Y-78260000D03*
X92460000Y-78260000D03*
%TD*%
D11*
%TO.C,J4*%
X55000000Y-95000000D03*
D10*
X52460000Y-95000000D03*
X55000000Y-97540000D03*
X52460000Y-97540000D03*
X55000000Y-100080000D03*
X52460000Y-100080000D03*
X55000000Y-102620000D03*
X52460000Y-102620000D03*
X55000000Y-105160000D03*
X52460000Y-105160000D03*
X55000000Y-107700000D03*
X52460000Y-107700000D03*
X55000000Y-110240000D03*
X52460000Y-110240000D03*
X55000000Y-112780000D03*
X52460000Y-112780000D03*
X55000000Y-115320000D03*
X52460000Y-115320000D03*
X55000000Y-117860000D03*
X52460000Y-117860000D03*
X55000000Y-120400000D03*
X52460000Y-120400000D03*
X55000000Y-122940000D03*
X52460000Y-122940000D03*
X55000000Y-125480000D03*
X52460000Y-125480000D03*
X55000000Y-128020000D03*
X52460000Y-128020000D03*
X55000000Y-130560000D03*
X52460000Y-130560000D03*
X55000000Y-133100000D03*
X52460000Y-133100000D03*
X55000000Y-135640000D03*
X52460000Y-135640000D03*
X55000000Y-138180000D03*
X52460000Y-138180000D03*
X55000000Y-140720000D03*
X52460000Y-140720000D03*
X55000000Y-143260000D03*
X52460000Y-143260000D03*
%TD*%
D11*
%TO.C,J6*%
X75000000Y-95000000D03*
D10*
X72460000Y-95000000D03*
X75000000Y-97540000D03*
X72460000Y-97540000D03*
X75000000Y-100080000D03*
X72460000Y-100080000D03*
X75000000Y-102620000D03*
X72460000Y-102620000D03*
X75000000Y-105160000D03*
X72460000Y-105160000D03*
X75000000Y-107700000D03*
X72460000Y-107700000D03*
X75000000Y-110240000D03*
X72460000Y-110240000D03*
X75000000Y-112780000D03*
X72460000Y-112780000D03*
X75000000Y-115320000D03*
X72460000Y-115320000D03*
X75000000Y-117860000D03*
X72460000Y-117860000D03*
X75000000Y-120400000D03*
X72460000Y-120400000D03*
X75000000Y-122940000D03*
X72460000Y-122940000D03*
X75000000Y-125480000D03*
X72460000Y-125480000D03*
X75000000Y-128020000D03*
X72460000Y-128020000D03*
X75000000Y-130560000D03*
X72460000Y-130560000D03*
X75000000Y-133100000D03*
X72460000Y-133100000D03*
X75000000Y-135640000D03*
X72460000Y-135640000D03*
X75000000Y-138180000D03*
X72460000Y-138180000D03*
X75000000Y-140720000D03*
X72460000Y-140720000D03*
X75000000Y-143260000D03*
X72460000Y-143260000D03*
%TD*%
D12*
%TO.C,C3*%
X240000000Y-95000000D03*
D13*
X242000000Y-95000000D03*
%TD*%
D11*
%TO.C,J20*%
X215000000Y-95000000D03*
D10*
X212460000Y-95000000D03*
X215000000Y-97540000D03*
X212460000Y-97540000D03*
X215000000Y-100080000D03*
X212460000Y-100080000D03*
X215000000Y-102620000D03*
X212460000Y-102620000D03*
X215000000Y-105160000D03*
X212460000Y-105160000D03*
X215000000Y-107700000D03*
X212460000Y-107700000D03*
X215000000Y-110240000D03*
X212460000Y-110240000D03*
X215000000Y-112780000D03*
X212460000Y-112780000D03*
X215000000Y-115320000D03*
X212460000Y-115320000D03*
X215000000Y-117860000D03*
X212460000Y-117860000D03*
X215000000Y-120400000D03*
X212460000Y-120400000D03*
X215000000Y-122940000D03*
X212460000Y-122940000D03*
X215000000Y-125480000D03*
X212460000Y-125480000D03*
X215000000Y-128020000D03*
X212460000Y-128020000D03*
X215000000Y-130560000D03*
X212460000Y-130560000D03*
X215000000Y-133100000D03*
X212460000Y-133100000D03*
X215000000Y-135640000D03*
X212460000Y-135640000D03*
X215000000Y-138180000D03*
X212460000Y-138180000D03*
X215000000Y-140720000D03*
X212460000Y-140720000D03*
X215000000Y-143260000D03*
X212460000Y-143260000D03*
%TD*%
D11*
%TO.C,J9*%
X115000000Y-30000000D03*
D10*
X112460000Y-30000000D03*
X115000000Y-32540000D03*
X112460000Y-32540000D03*
X115000000Y-35080000D03*
X112460000Y-35080000D03*
X115000000Y-37620000D03*
X112460000Y-37620000D03*
X115000000Y-40160000D03*
X112460000Y-40160000D03*
X115000000Y-42700000D03*
X112460000Y-42700000D03*
X115000000Y-45240000D03*
X112460000Y-45240000D03*
X115000000Y-47780000D03*
X112460000Y-47780000D03*
X115000000Y-50320000D03*
X112460000Y-50320000D03*
X115000000Y-52860000D03*
X112460000Y-52860000D03*
X115000000Y-55400000D03*
X112460000Y-55400000D03*
X115000000Y-57940000D03*
X112460000Y-57940000D03*
X115000000Y-60480000D03*
X112460000Y-60480000D03*
X115000000Y-63020000D03*
X112460000Y-63020000D03*
X115000000Y-65560000D03*
X112460000Y-65560000D03*
X115000000Y-68100000D03*
X112460000Y-68100000D03*
X115000000Y-70640000D03*
X112460000Y-70640000D03*
X115000000Y-73180000D03*
X112460000Y-73180000D03*
X115000000Y-75720000D03*
X112460000Y-75720000D03*
X115000000Y-78260000D03*
X112460000Y-78260000D03*
%TD*%
D11*
%TO.C,J19*%
X215000000Y-30000000D03*
D10*
X212460000Y-30000000D03*
X215000000Y-32540000D03*
X212460000Y-32540000D03*
X215000000Y-35080000D03*
X212460000Y-35080000D03*
X215000000Y-37620000D03*
X212460000Y-37620000D03*
X215000000Y-40160000D03*
X212460000Y-40160000D03*
X215000000Y-42700000D03*
X212460000Y-42700000D03*
X215000000Y-45240000D03*
X212460000Y-45240000D03*
X215000000Y-47780000D03*
X212460000Y-47780000D03*
X215000000Y-50320000D03*
X212460000Y-50320000D03*
X215000000Y-52860000D03*
X212460000Y-52860000D03*
X215000000Y-55400000D03*
X212460000Y-55400000D03*
X215000000Y-57940000D03*
X212460000Y-57940000D03*
X215000000Y-60480000D03*
X212460000Y-60480000D03*
X215000000Y-63020000D03*
X212460000Y-63020000D03*
X215000000Y-65560000D03*
X212460000Y-65560000D03*
X215000000Y-68100000D03*
X212460000Y-68100000D03*
X215000000Y-70640000D03*
X212460000Y-70640000D03*
X215000000Y-73180000D03*
X212460000Y-73180000D03*
X215000000Y-75720000D03*
X212460000Y-75720000D03*
X215000000Y-78260000D03*
X212460000Y-78260000D03*
%TD*%
D11*
%TO.C,J16*%
X175000000Y-95000000D03*
D10*
X172460000Y-95000000D03*
X175000000Y-97540000D03*
X172460000Y-97540000D03*
X175000000Y-100080000D03*
X172460000Y-100080000D03*
X175000000Y-102620000D03*
X172460000Y-102620000D03*
X175000000Y-105160000D03*
X172460000Y-105160000D03*
X175000000Y-107700000D03*
X172460000Y-107700000D03*
X175000000Y-110240000D03*
X172460000Y-110240000D03*
X175000000Y-112780000D03*
X172460000Y-112780000D03*
X175000000Y-115320000D03*
X172460000Y-115320000D03*
X175000000Y-117860000D03*
X172460000Y-117860000D03*
X175000000Y-120400000D03*
X172460000Y-120400000D03*
X175000000Y-122940000D03*
X172460000Y-122940000D03*
X175000000Y-125480000D03*
X172460000Y-125480000D03*
X175000000Y-128020000D03*
X172460000Y-128020000D03*
X175000000Y-130560000D03*
X172460000Y-130560000D03*
X175000000Y-133100000D03*
X172460000Y-133100000D03*
X175000000Y-135640000D03*
X172460000Y-135640000D03*
X175000000Y-138180000D03*
X172460000Y-138180000D03*
X175000000Y-140720000D03*
X172460000Y-140720000D03*
X175000000Y-143260000D03*
X172460000Y-143260000D03*
%TD*%
D12*
%TO.C,C4*%
X45000000Y-95000000D03*
D13*
X43000000Y-95000000D03*
%TD*%
D11*
%TO.C,J21*%
X235000000Y-30000000D03*
D10*
X232460000Y-30000000D03*
X235000000Y-32540000D03*
X232460000Y-32540000D03*
X235000000Y-35080000D03*
X232460000Y-35080000D03*
X235000000Y-37620000D03*
X232460000Y-37620000D03*
X235000000Y-40160000D03*
X232460000Y-40160000D03*
X235000000Y-42700000D03*
X232460000Y-42700000D03*
X235000000Y-45240000D03*
X232460000Y-45240000D03*
X235000000Y-47780000D03*
X232460000Y-47780000D03*
X235000000Y-50320000D03*
X232460000Y-50320000D03*
X235000000Y-52860000D03*
X232460000Y-52860000D03*
X235000000Y-55400000D03*
X232460000Y-55400000D03*
X235000000Y-57940000D03*
X232460000Y-57940000D03*
X235000000Y-60480000D03*
X232460000Y-60480000D03*
X235000000Y-63020000D03*
X232460000Y-63020000D03*
X235000000Y-65560000D03*
X232460000Y-65560000D03*
X235000000Y-68100000D03*
X232460000Y-68100000D03*
X235000000Y-70640000D03*
X232460000Y-70640000D03*
X235000000Y-73180000D03*
X232460000Y-73180000D03*
X235000000Y-75720000D03*
X232460000Y-75720000D03*
X235000000Y-78260000D03*
X232460000Y-78260000D03*
%TD*%
D11*
%TO.C,J13*%
X155000000Y-30000000D03*
D10*
X152460000Y-30000000D03*
X155000000Y-32540000D03*
X152460000Y-32540000D03*
X155000000Y-35080000D03*
X152460000Y-35080000D03*
X155000000Y-37620000D03*
X152460000Y-37620000D03*
X155000000Y-40160000D03*
X152460000Y-40160000D03*
X155000000Y-42700000D03*
X152460000Y-42700000D03*
X155000000Y-45240000D03*
X152460000Y-45240000D03*
X155000000Y-47780000D03*
X152460000Y-47780000D03*
X155000000Y-50320000D03*
X152460000Y-50320000D03*
X155000000Y-52860000D03*
X152460000Y-52860000D03*
X155000000Y-55400000D03*
X152460000Y-55400000D03*
X155000000Y-57940000D03*
X152460000Y-57940000D03*
X155000000Y-60480000D03*
X152460000Y-60480000D03*
X155000000Y-63020000D03*
X152460000Y-63020000D03*
X155000000Y-65560000D03*
X152460000Y-65560000D03*
X155000000Y-68100000D03*
X152460000Y-68100000D03*
X155000000Y-70640000D03*
X152460000Y-70640000D03*
X155000000Y-73180000D03*
X152460000Y-73180000D03*
X155000000Y-75720000D03*
X152460000Y-75720000D03*
X155000000Y-78260000D03*
X152460000Y-78260000D03*
%TD*%
D11*
%TO.C,J10*%
X115000000Y-95000000D03*
D10*
X112460000Y-95000000D03*
X115000000Y-97540000D03*
X112460000Y-97540000D03*
X115000000Y-100080000D03*
X112460000Y-100080000D03*
X115000000Y-102620000D03*
X112460000Y-102620000D03*
X115000000Y-105160000D03*
X112460000Y-105160000D03*
X115000000Y-107700000D03*
X112460000Y-107700000D03*
X115000000Y-110240000D03*
X112460000Y-110240000D03*
X115000000Y-112780000D03*
X112460000Y-112780000D03*
X115000000Y-115320000D03*
X112460000Y-115320000D03*
X115000000Y-117860000D03*
X112460000Y-117860000D03*
X115000000Y-120400000D03*
X112460000Y-120400000D03*
X115000000Y-122940000D03*
X112460000Y-122940000D03*
X115000000Y-125480000D03*
X112460000Y-125480000D03*
X115000000Y-128020000D03*
X112460000Y-128020000D03*
X115000000Y-130560000D03*
X112460000Y-130560000D03*
X115000000Y-133100000D03*
X112460000Y-133100000D03*
X115000000Y-135640000D03*
X112460000Y-135640000D03*
X115000000Y-138180000D03*
X112460000Y-138180000D03*
X115000000Y-140720000D03*
X112460000Y-140720000D03*
X115000000Y-143260000D03*
X112460000Y-143260000D03*
%TD*%
D14*
%TO.C,J2*%
X255000000Y-30000000D03*
%TD*%
%TO.C,J1*%
X255000000Y-50000000D03*
%TD*%
D12*
%TO.C,C2*%
X45000000Y-30000000D03*
D13*
X43000000Y-30000000D03*
%TD*%
D11*
%TO.C,J11*%
X135000000Y-30000000D03*
D10*
X132460000Y-30000000D03*
X135000000Y-32540000D03*
X132460000Y-32540000D03*
X135000000Y-35080000D03*
X132460000Y-35080000D03*
X135000000Y-37620000D03*
X132460000Y-37620000D03*
X135000000Y-40160000D03*
X132460000Y-40160000D03*
X135000000Y-42700000D03*
X132460000Y-42700000D03*
X135000000Y-45240000D03*
X132460000Y-45240000D03*
X135000000Y-47780000D03*
X132460000Y-47780000D03*
X135000000Y-50320000D03*
X132460000Y-50320000D03*
X135000000Y-52860000D03*
X132460000Y-52860000D03*
X135000000Y-55400000D03*
X132460000Y-55400000D03*
X135000000Y-57940000D03*
X132460000Y-57940000D03*
X135000000Y-60480000D03*
X132460000Y-60480000D03*
X135000000Y-63020000D03*
X132460000Y-63020000D03*
X135000000Y-65560000D03*
X132460000Y-65560000D03*
X135000000Y-68100000D03*
X132460000Y-68100000D03*
X135000000Y-70640000D03*
X132460000Y-70640000D03*
X135000000Y-73180000D03*
X132460000Y-73180000D03*
X135000000Y-75720000D03*
X132460000Y-75720000D03*
X135000000Y-78260000D03*
X132460000Y-78260000D03*
%TD*%
D11*
%TO.C,J12*%
X135000000Y-95000000D03*
D10*
X132460000Y-95000000D03*
X135000000Y-97540000D03*
X132460000Y-97540000D03*
X135000000Y-100080000D03*
X132460000Y-100080000D03*
X135000000Y-102620000D03*
X132460000Y-102620000D03*
X135000000Y-105160000D03*
X132460000Y-105160000D03*
X135000000Y-107700000D03*
X132460000Y-107700000D03*
X135000000Y-110240000D03*
X132460000Y-110240000D03*
X135000000Y-112780000D03*
X132460000Y-112780000D03*
X135000000Y-115320000D03*
X132460000Y-115320000D03*
X135000000Y-117860000D03*
X132460000Y-117860000D03*
X135000000Y-120400000D03*
X132460000Y-120400000D03*
X135000000Y-122940000D03*
X132460000Y-122940000D03*
X135000000Y-125480000D03*
X132460000Y-125480000D03*
X135000000Y-128020000D03*
X132460000Y-128020000D03*
X135000000Y-130560000D03*
X132460000Y-130560000D03*
X135000000Y-133100000D03*
X132460000Y-133100000D03*
X135000000Y-135640000D03*
X132460000Y-135640000D03*
X135000000Y-138180000D03*
X132460000Y-138180000D03*
X135000000Y-140720000D03*
X132460000Y-140720000D03*
X135000000Y-143260000D03*
X132460000Y-143260000D03*
%TD*%
D12*
%TO.C,C1*%
X243000000Y-30000000D03*
D13*
X243000000Y-32000000D03*
%TD*%
D11*
%TO.C,J8*%
X95000000Y-95000000D03*
D10*
X92460000Y-95000000D03*
X95000000Y-97540000D03*
X92460000Y-97540000D03*
X95000000Y-100080000D03*
X92460000Y-100080000D03*
X95000000Y-102620000D03*
X92460000Y-102620000D03*
X95000000Y-105160000D03*
X92460000Y-105160000D03*
X95000000Y-107700000D03*
X92460000Y-107700000D03*
X95000000Y-110240000D03*
X92460000Y-110240000D03*
X95000000Y-112780000D03*
X92460000Y-112780000D03*
X95000000Y-115320000D03*
X92460000Y-115320000D03*
X95000000Y-117860000D03*
X92460000Y-117860000D03*
X95000000Y-120400000D03*
X92460000Y-120400000D03*
X95000000Y-122940000D03*
X92460000Y-122940000D03*
X95000000Y-125480000D03*
X92460000Y-125480000D03*
X95000000Y-128020000D03*
X92460000Y-128020000D03*
X95000000Y-130560000D03*
X92460000Y-130560000D03*
X95000000Y-133100000D03*
X92460000Y-133100000D03*
X95000000Y-135640000D03*
X92460000Y-135640000D03*
X95000000Y-138180000D03*
X92460000Y-138180000D03*
X95000000Y-140720000D03*
X92460000Y-140720000D03*
X95000000Y-143260000D03*
X92460000Y-143260000D03*
%TD*%
D11*
%TO.C,J17*%
X195000000Y-30000000D03*
D10*
X192460000Y-30000000D03*
X195000000Y-32540000D03*
X192460000Y-32540000D03*
X195000000Y-35080000D03*
X192460000Y-35080000D03*
X195000000Y-37620000D03*
X192460000Y-37620000D03*
X195000000Y-40160000D03*
X192460000Y-40160000D03*
X195000000Y-42700000D03*
X192460000Y-42700000D03*
X195000000Y-45240000D03*
X192460000Y-45240000D03*
X195000000Y-47780000D03*
X192460000Y-47780000D03*
X195000000Y-50320000D03*
X192460000Y-50320000D03*
X195000000Y-52860000D03*
X192460000Y-52860000D03*
X195000000Y-55400000D03*
X192460000Y-55400000D03*
X195000000Y-57940000D03*
X192460000Y-57940000D03*
X195000000Y-60480000D03*
X192460000Y-60480000D03*
X195000000Y-63020000D03*
X192460000Y-63020000D03*
X195000000Y-65560000D03*
X192460000Y-65560000D03*
X195000000Y-68100000D03*
X192460000Y-68100000D03*
X195000000Y-70640000D03*
X192460000Y-70640000D03*
X195000000Y-73180000D03*
X192460000Y-73180000D03*
X195000000Y-75720000D03*
X192460000Y-75720000D03*
X195000000Y-78260000D03*
X192460000Y-78260000D03*
%TD*%
D11*
%TO.C,J22*%
X235000000Y-95000000D03*
D10*
X232460000Y-95000000D03*
X235000000Y-97540000D03*
X232460000Y-97540000D03*
X235000000Y-100080000D03*
X232460000Y-100080000D03*
X235000000Y-102620000D03*
X232460000Y-102620000D03*
X235000000Y-105160000D03*
X232460000Y-105160000D03*
X235000000Y-107700000D03*
X232460000Y-107700000D03*
X235000000Y-110240000D03*
X232460000Y-110240000D03*
X235000000Y-112780000D03*
X232460000Y-112780000D03*
X235000000Y-115320000D03*
X232460000Y-115320000D03*
X235000000Y-117860000D03*
X232460000Y-117860000D03*
X235000000Y-120400000D03*
X232460000Y-120400000D03*
X235000000Y-122940000D03*
X232460000Y-122940000D03*
X235000000Y-125480000D03*
X232460000Y-125480000D03*
X235000000Y-128020000D03*
X232460000Y-128020000D03*
X235000000Y-130560000D03*
X232460000Y-130560000D03*
X235000000Y-133100000D03*
X232460000Y-133100000D03*
X235000000Y-135640000D03*
X232460000Y-135640000D03*
X235000000Y-138180000D03*
X232460000Y-138180000D03*
X235000000Y-140720000D03*
X232460000Y-140720000D03*
X235000000Y-143260000D03*
X232460000Y-143260000D03*
%TD*%
D11*
%TO.C,J14*%
X155000000Y-95000000D03*
D10*
X152460000Y-95000000D03*
X155000000Y-97540000D03*
X152460000Y-97540000D03*
X155000000Y-100080000D03*
X152460000Y-100080000D03*
X155000000Y-102620000D03*
X152460000Y-102620000D03*
X155000000Y-105160000D03*
X152460000Y-105160000D03*
X155000000Y-107700000D03*
X152460000Y-107700000D03*
X155000000Y-110240000D03*
X152460000Y-110240000D03*
X155000000Y-112780000D03*
X152460000Y-112780000D03*
X155000000Y-115320000D03*
X152460000Y-115320000D03*
X155000000Y-117860000D03*
X152460000Y-117860000D03*
X155000000Y-120400000D03*
X152460000Y-120400000D03*
X155000000Y-122940000D03*
X152460000Y-122940000D03*
X155000000Y-125480000D03*
X152460000Y-125480000D03*
X155000000Y-128020000D03*
X152460000Y-128020000D03*
X155000000Y-130560000D03*
X152460000Y-130560000D03*
X155000000Y-133100000D03*
X152460000Y-133100000D03*
X155000000Y-135640000D03*
X152460000Y-135640000D03*
X155000000Y-138180000D03*
X152460000Y-138180000D03*
X155000000Y-140720000D03*
X152460000Y-140720000D03*
X155000000Y-143260000D03*
X152460000Y-143260000D03*
%TD*%
D11*
%TO.C,J3*%
X55000000Y-30000000D03*
D10*
X52460000Y-30000000D03*
X55000000Y-32540000D03*
X52460000Y-32540000D03*
X55000000Y-35080000D03*
X52460000Y-35080000D03*
X55000000Y-37620000D03*
X52460000Y-37620000D03*
X55000000Y-40160000D03*
X52460000Y-40160000D03*
X55000000Y-42700000D03*
X52460000Y-42700000D03*
X55000000Y-45240000D03*
X52460000Y-45240000D03*
X55000000Y-47780000D03*
X52460000Y-47780000D03*
X55000000Y-50320000D03*
X52460000Y-50320000D03*
X55000000Y-52860000D03*
X52460000Y-52860000D03*
X55000000Y-55400000D03*
X52460000Y-55400000D03*
X55000000Y-57940000D03*
X52460000Y-57940000D03*
X55000000Y-60480000D03*
X52460000Y-60480000D03*
X55000000Y-63020000D03*
X52460000Y-63020000D03*
X55000000Y-65560000D03*
X52460000Y-65560000D03*
X55000000Y-68100000D03*
X52460000Y-68100000D03*
X55000000Y-70640000D03*
X52460000Y-70640000D03*
X55000000Y-73180000D03*
X52460000Y-73180000D03*
X55000000Y-75720000D03*
X52460000Y-75720000D03*
X55000000Y-78260000D03*
X52460000Y-78260000D03*
%TD*%
D11*
%TO.C,J15*%
X175000000Y-30000000D03*
D10*
X172460000Y-30000000D03*
X175000000Y-32540000D03*
X172460000Y-32540000D03*
X175000000Y-35080000D03*
X172460000Y-35080000D03*
X175000000Y-37620000D03*
X172460000Y-37620000D03*
X175000000Y-40160000D03*
X172460000Y-40160000D03*
X175000000Y-42700000D03*
X172460000Y-42700000D03*
X175000000Y-45240000D03*
X172460000Y-45240000D03*
X175000000Y-47780000D03*
X172460000Y-47780000D03*
X175000000Y-50320000D03*
X172460000Y-50320000D03*
X175000000Y-52860000D03*
X172460000Y-52860000D03*
X175000000Y-55400000D03*
X172460000Y-55400000D03*
X175000000Y-57940000D03*
X172460000Y-57940000D03*
X175000000Y-60480000D03*
X172460000Y-60480000D03*
X175000000Y-63020000D03*
X172460000Y-63020000D03*
X175000000Y-65560000D03*
X172460000Y-65560000D03*
X175000000Y-68100000D03*
X172460000Y-68100000D03*
X175000000Y-70640000D03*
X172460000Y-70640000D03*
X175000000Y-73180000D03*
X172460000Y-73180000D03*
X175000000Y-75720000D03*
X172460000Y-75720000D03*
X175000000Y-78260000D03*
X172460000Y-78260000D03*
%TD*%
D11*
%TO.C,J18*%
X195000000Y-95000000D03*
D10*
X192460000Y-95000000D03*
X195000000Y-97540000D03*
X192460000Y-97540000D03*
X195000000Y-100080000D03*
X192460000Y-100080000D03*
X195000000Y-102620000D03*
X192460000Y-102620000D03*
X195000000Y-105160000D03*
X192460000Y-105160000D03*
X195000000Y-107700000D03*
X192460000Y-107700000D03*
X195000000Y-110240000D03*
X192460000Y-110240000D03*
X195000000Y-112780000D03*
X192460000Y-112780000D03*
X195000000Y-115320000D03*
X192460000Y-115320000D03*
X195000000Y-117860000D03*
X192460000Y-117860000D03*
X195000000Y-120400000D03*
X192460000Y-120400000D03*
X195000000Y-122940000D03*
X192460000Y-122940000D03*
X195000000Y-125480000D03*
X192460000Y-125480000D03*
X195000000Y-128020000D03*
X192460000Y-128020000D03*
X195000000Y-130560000D03*
X192460000Y-130560000D03*
X195000000Y-133100000D03*
X192460000Y-133100000D03*
X195000000Y-135640000D03*
X192460000Y-135640000D03*
X195000000Y-138180000D03*
X192460000Y-138180000D03*
X195000000Y-140720000D03*
X192460000Y-140720000D03*
X195000000Y-143260000D03*
X192460000Y-143260000D03*
%TD*%
M02*
