%TF.GenerationSoftware,KiCad,Pcbnew,6.0.2+dfsg-1*%
%TF.CreationDate,2024-02-23T08:38:29-06:00*%
%TF.ProjectId,Backplan2,4261636b-706c-4616-9e32-2e6b69636164,rev?*%
%TF.SameCoordinates,Original*%
%TF.FileFunction,Legend,Top*%
%TF.FilePolarity,Positive*%
%FSLAX46Y46*%
G04 Gerber Fmt 4.6, Leading zero omitted, Abs format (unit mm)*
G04 Created by KiCad (PCBNEW 6.0.2+dfsg-1) date 2024-02-23 08:38:29*
%MOMM*%
%LPD*%
G01*
G04 APERTURE LIST*
%ADD10C,0.150000*%
%ADD11C,0.120000*%
G04 APERTURE END LIST*
D10*
X40000000Y-147751666D02*
X40476190Y-147751666D01*
X39904761Y-148037380D02*
X40238095Y-147037380D01*
X40571428Y-148037380D01*
X40904761Y-147370714D02*
X40904761Y-148037380D01*
X40904761Y-147465952D02*
X40952380Y-147418333D01*
X41047619Y-147370714D01*
X41190476Y-147370714D01*
X41285714Y-147418333D01*
X41333333Y-147513571D01*
X41333333Y-148037380D01*
X42238095Y-148037380D02*
X42238095Y-147037380D01*
X42238095Y-147989761D02*
X42142857Y-148037380D01*
X41952380Y-148037380D01*
X41857142Y-147989761D01*
X41809523Y-147942142D01*
X41761904Y-147846904D01*
X41761904Y-147561190D01*
X41809523Y-147465952D01*
X41857142Y-147418333D01*
X41952380Y-147370714D01*
X42142857Y-147370714D01*
X42238095Y-147418333D01*
X42714285Y-148037380D02*
X42714285Y-147370714D01*
X42714285Y-147561190D02*
X42761904Y-147465952D01*
X42809523Y-147418333D01*
X42904761Y-147370714D01*
X42999999Y-147370714D01*
X43476190Y-148037380D02*
X43380952Y-147989761D01*
X43333333Y-147942142D01*
X43285714Y-147846904D01*
X43285714Y-147561190D01*
X43333333Y-147465952D01*
X43380952Y-147418333D01*
X43476190Y-147370714D01*
X43619047Y-147370714D01*
X43714285Y-147418333D01*
X43761904Y-147465952D01*
X43809523Y-147561190D01*
X43809523Y-147846904D01*
X43761904Y-147942142D01*
X43714285Y-147989761D01*
X43619047Y-148037380D01*
X43476190Y-148037380D01*
X44238095Y-148037380D02*
X44238095Y-147370714D01*
X44238095Y-147465952D02*
X44285714Y-147418333D01*
X44380952Y-147370714D01*
X44523809Y-147370714D01*
X44619047Y-147418333D01*
X44666666Y-147513571D01*
X44666666Y-148037380D01*
X44666666Y-147513571D02*
X44714285Y-147418333D01*
X44809523Y-147370714D01*
X44952380Y-147370714D01*
X45047619Y-147418333D01*
X45095238Y-147513571D01*
X45095238Y-148037380D01*
X45952380Y-147989761D02*
X45857142Y-148037380D01*
X45666666Y-148037380D01*
X45571428Y-147989761D01*
X45523809Y-147894523D01*
X45523809Y-147513571D01*
X45571428Y-147418333D01*
X45666666Y-147370714D01*
X45857142Y-147370714D01*
X45952380Y-147418333D01*
X45999999Y-147513571D01*
X45999999Y-147608809D01*
X45523809Y-147704047D01*
X46857142Y-148037380D02*
X46857142Y-147037380D01*
X46857142Y-147989761D02*
X46761904Y-148037380D01*
X46571428Y-148037380D01*
X46476190Y-147989761D01*
X46428571Y-147942142D01*
X46380952Y-147846904D01*
X46380952Y-147561190D01*
X46428571Y-147465952D01*
X46476190Y-147418333D01*
X46571428Y-147370714D01*
X46761904Y-147370714D01*
X46857142Y-147418333D01*
X47761904Y-148037380D02*
X47761904Y-147513571D01*
X47714285Y-147418333D01*
X47619047Y-147370714D01*
X47428571Y-147370714D01*
X47333333Y-147418333D01*
X47761904Y-147989761D02*
X47666666Y-148037380D01*
X47428571Y-148037380D01*
X47333333Y-147989761D01*
X47285714Y-147894523D01*
X47285714Y-147799285D01*
X47333333Y-147704047D01*
X47428571Y-147656428D01*
X47666666Y-147656428D01*
X47761904Y-147608809D01*
X49333333Y-147513571D02*
X49476190Y-147561190D01*
X49523809Y-147608809D01*
X49571428Y-147704047D01*
X49571428Y-147846904D01*
X49523809Y-147942142D01*
X49476190Y-147989761D01*
X49380952Y-148037380D01*
X49000000Y-148037380D01*
X49000000Y-147037380D01*
X49333333Y-147037380D01*
X49428571Y-147085000D01*
X49476190Y-147132619D01*
X49523809Y-147227857D01*
X49523809Y-147323095D01*
X49476190Y-147418333D01*
X49428571Y-147465952D01*
X49333333Y-147513571D01*
X49000000Y-147513571D01*
X50428571Y-148037380D02*
X50428571Y-147513571D01*
X50380952Y-147418333D01*
X50285714Y-147370714D01*
X50095238Y-147370714D01*
X50000000Y-147418333D01*
X50428571Y-147989761D02*
X50333333Y-148037380D01*
X50095238Y-148037380D01*
X50000000Y-147989761D01*
X49952380Y-147894523D01*
X49952380Y-147799285D01*
X50000000Y-147704047D01*
X50095238Y-147656428D01*
X50333333Y-147656428D01*
X50428571Y-147608809D01*
X51333333Y-147989761D02*
X51238095Y-148037380D01*
X51047619Y-148037380D01*
X50952380Y-147989761D01*
X50904761Y-147942142D01*
X50857142Y-147846904D01*
X50857142Y-147561190D01*
X50904761Y-147465952D01*
X50952380Y-147418333D01*
X51047619Y-147370714D01*
X51238095Y-147370714D01*
X51333333Y-147418333D01*
X51761904Y-148037380D02*
X51761904Y-147037380D01*
X51857142Y-147656428D02*
X52142857Y-148037380D01*
X52142857Y-147370714D02*
X51761904Y-147751666D01*
X52571428Y-147370714D02*
X52571428Y-148370714D01*
X52571428Y-147418333D02*
X52666666Y-147370714D01*
X52857142Y-147370714D01*
X52952380Y-147418333D01*
X52999999Y-147465952D01*
X53047619Y-147561190D01*
X53047619Y-147846904D01*
X52999999Y-147942142D01*
X52952380Y-147989761D01*
X52857142Y-148037380D01*
X52666666Y-148037380D01*
X52571428Y-147989761D01*
X53619047Y-148037380D02*
X53523809Y-147989761D01*
X53476190Y-147894523D01*
X53476190Y-147037380D01*
X54428571Y-148037380D02*
X54428571Y-147513571D01*
X54380952Y-147418333D01*
X54285714Y-147370714D01*
X54095238Y-147370714D01*
X54000000Y-147418333D01*
X54428571Y-147989761D02*
X54333333Y-148037380D01*
X54095238Y-148037380D01*
X54000000Y-147989761D01*
X53952380Y-147894523D01*
X53952380Y-147799285D01*
X54000000Y-147704047D01*
X54095238Y-147656428D01*
X54333333Y-147656428D01*
X54428571Y-147608809D01*
X54904761Y-147370714D02*
X54904761Y-148037380D01*
X54904761Y-147465952D02*
X54952380Y-147418333D01*
X55047619Y-147370714D01*
X55190476Y-147370714D01*
X55285714Y-147418333D01*
X55333333Y-147513571D01*
X55333333Y-148037380D01*
X56190476Y-147989761D02*
X56095238Y-148037380D01*
X55904761Y-148037380D01*
X55809523Y-147989761D01*
X55761904Y-147894523D01*
X55761904Y-147513571D01*
X55809523Y-147418333D01*
X55904761Y-147370714D01*
X56095238Y-147370714D01*
X56190476Y-147418333D01*
X56238095Y-147513571D01*
X56238095Y-147608809D01*
X55761904Y-147704047D01*
X46666666Y-149647380D02*
X46333333Y-149171190D01*
X46095238Y-149647380D02*
X46095238Y-148647380D01*
X46476190Y-148647380D01*
X46571428Y-148695000D01*
X46619047Y-148742619D01*
X46666666Y-148837857D01*
X46666666Y-148980714D01*
X46619047Y-149075952D01*
X46571428Y-149123571D01*
X46476190Y-149171190D01*
X46095238Y-149171190D01*
X47476190Y-149599761D02*
X47380952Y-149647380D01*
X47190476Y-149647380D01*
X47095238Y-149599761D01*
X47047619Y-149504523D01*
X47047619Y-149123571D01*
X47095238Y-149028333D01*
X47190476Y-148980714D01*
X47380952Y-148980714D01*
X47476190Y-149028333D01*
X47523809Y-149123571D01*
X47523809Y-149218809D01*
X47047619Y-149314047D01*
X47857142Y-148980714D02*
X48095238Y-149647380D01*
X48333333Y-148980714D01*
X49666666Y-148647380D02*
X49761904Y-148647380D01*
X49857142Y-148695000D01*
X49904761Y-148742619D01*
X49952380Y-148837857D01*
X50000000Y-149028333D01*
X50000000Y-149266428D01*
X49952380Y-149456904D01*
X49904761Y-149552142D01*
X49857142Y-149599761D01*
X49761904Y-149647380D01*
X49666666Y-149647380D01*
X49571428Y-149599761D01*
X49523809Y-149552142D01*
X49476190Y-149456904D01*
X49428571Y-149266428D01*
X49428571Y-149028333D01*
X49476190Y-148837857D01*
X49523809Y-148742619D01*
X49571428Y-148695000D01*
X49666666Y-148647380D01*
X50952380Y-149647380D02*
X50380952Y-149647380D01*
X50666666Y-149647380D02*
X50666666Y-148647380D01*
X50571428Y-148790238D01*
X50476190Y-148885476D01*
X50380952Y-148933095D01*
X41857142Y-150352619D02*
X41904761Y-150305000D01*
X42000000Y-150257380D01*
X42238095Y-150257380D01*
X42333333Y-150305000D01*
X42380952Y-150352619D01*
X42428571Y-150447857D01*
X42428571Y-150543095D01*
X42380952Y-150685952D01*
X41809523Y-151257380D01*
X42428571Y-151257380D01*
X42761904Y-150257380D02*
X43380952Y-150257380D01*
X43047619Y-150638333D01*
X43190476Y-150638333D01*
X43285714Y-150685952D01*
X43333333Y-150733571D01*
X43380952Y-150828809D01*
X43380952Y-151066904D01*
X43333333Y-151162142D01*
X43285714Y-151209761D01*
X43190476Y-151257380D01*
X42904761Y-151257380D01*
X42809523Y-151209761D01*
X42761904Y-151162142D01*
X44904761Y-150733571D02*
X44571428Y-150733571D01*
X44571428Y-151257380D02*
X44571428Y-150257380D01*
X45047619Y-150257380D01*
X45809523Y-151209761D02*
X45714285Y-151257380D01*
X45523809Y-151257380D01*
X45428571Y-151209761D01*
X45380952Y-151114523D01*
X45380952Y-150733571D01*
X45428571Y-150638333D01*
X45523809Y-150590714D01*
X45714285Y-150590714D01*
X45809523Y-150638333D01*
X45857142Y-150733571D01*
X45857142Y-150828809D01*
X45380952Y-150924047D01*
X46285714Y-151257380D02*
X46285714Y-150257380D01*
X46285714Y-150638333D02*
X46380952Y-150590714D01*
X46571428Y-150590714D01*
X46666666Y-150638333D01*
X46714285Y-150685952D01*
X46761904Y-150781190D01*
X46761904Y-151066904D01*
X46714285Y-151162142D01*
X46666666Y-151209761D01*
X46571428Y-151257380D01*
X46380952Y-151257380D01*
X46285714Y-151209761D01*
X47190476Y-151257380D02*
X47190476Y-150590714D01*
X47190476Y-150781190D02*
X47238095Y-150685952D01*
X47285714Y-150638333D01*
X47380952Y-150590714D01*
X47476190Y-150590714D01*
X48238095Y-150590714D02*
X48238095Y-151257380D01*
X47809523Y-150590714D02*
X47809523Y-151114523D01*
X47857142Y-151209761D01*
X47952380Y-151257380D01*
X48095238Y-151257380D01*
X48190476Y-151209761D01*
X48238095Y-151162142D01*
X49142857Y-151257380D02*
X49142857Y-150733571D01*
X49095238Y-150638333D01*
X49000000Y-150590714D01*
X48809523Y-150590714D01*
X48714285Y-150638333D01*
X49142857Y-151209761D02*
X49047619Y-151257380D01*
X48809523Y-151257380D01*
X48714285Y-151209761D01*
X48666666Y-151114523D01*
X48666666Y-151019285D01*
X48714285Y-150924047D01*
X48809523Y-150876428D01*
X49047619Y-150876428D01*
X49142857Y-150828809D01*
X49619047Y-151257380D02*
X49619047Y-150590714D01*
X49619047Y-150781190D02*
X49666666Y-150685952D01*
X49714285Y-150638333D01*
X49809523Y-150590714D01*
X49904761Y-150590714D01*
X50142857Y-150590714D02*
X50380952Y-151257380D01*
X50619047Y-150590714D02*
X50380952Y-151257380D01*
X50285714Y-151495476D01*
X50238095Y-151543095D01*
X50142857Y-151590714D01*
X51714285Y-150352619D02*
X51761904Y-150305000D01*
X51857142Y-150257380D01*
X52095238Y-150257380D01*
X52190476Y-150305000D01*
X52238095Y-150352619D01*
X52285714Y-150447857D01*
X52285714Y-150543095D01*
X52238095Y-150685952D01*
X51666666Y-151257380D01*
X52285714Y-151257380D01*
X52904761Y-150257380D02*
X53000000Y-150257380D01*
X53095238Y-150305000D01*
X53142857Y-150352619D01*
X53190476Y-150447857D01*
X53238095Y-150638333D01*
X53238095Y-150876428D01*
X53190476Y-151066904D01*
X53142857Y-151162142D01*
X53095238Y-151209761D01*
X53000000Y-151257380D01*
X52904761Y-151257380D01*
X52809523Y-151209761D01*
X52761904Y-151162142D01*
X52714285Y-151066904D01*
X52666666Y-150876428D01*
X52666666Y-150638333D01*
X52714285Y-150447857D01*
X52761904Y-150352619D01*
X52809523Y-150305000D01*
X52904761Y-150257380D01*
X53619047Y-150352619D02*
X53666666Y-150305000D01*
X53761904Y-150257380D01*
X53999999Y-150257380D01*
X54095238Y-150305000D01*
X54142857Y-150352619D01*
X54190476Y-150447857D01*
X54190476Y-150543095D01*
X54142857Y-150685952D01*
X53571428Y-151257380D01*
X54190476Y-151257380D01*
X55047619Y-150590714D02*
X55047619Y-151257380D01*
X54809523Y-150209761D02*
X54571428Y-150924047D01*
X55190476Y-150924047D01*
X37119047Y-152772142D02*
X37071428Y-152819761D01*
X36928571Y-152867380D01*
X36833333Y-152867380D01*
X36690476Y-152819761D01*
X36595238Y-152724523D01*
X36547619Y-152629285D01*
X36500000Y-152438809D01*
X36500000Y-152295952D01*
X36547619Y-152105476D01*
X36595238Y-152010238D01*
X36690476Y-151915000D01*
X36833333Y-151867380D01*
X36928571Y-151867380D01*
X37071428Y-151915000D01*
X37119047Y-151962619D01*
X37690476Y-152867380D02*
X37595238Y-152819761D01*
X37547619Y-152772142D01*
X37500000Y-152676904D01*
X37500000Y-152391190D01*
X37547619Y-152295952D01*
X37595238Y-152248333D01*
X37690476Y-152200714D01*
X37833333Y-152200714D01*
X37928571Y-152248333D01*
X37976190Y-152295952D01*
X38023809Y-152391190D01*
X38023809Y-152676904D01*
X37976190Y-152772142D01*
X37928571Y-152819761D01*
X37833333Y-152867380D01*
X37690476Y-152867380D01*
X38452380Y-152200714D02*
X38452380Y-153200714D01*
X38452380Y-152248333D02*
X38547619Y-152200714D01*
X38738095Y-152200714D01*
X38833333Y-152248333D01*
X38880952Y-152295952D01*
X38928571Y-152391190D01*
X38928571Y-152676904D01*
X38880952Y-152772142D01*
X38833333Y-152819761D01*
X38738095Y-152867380D01*
X38547619Y-152867380D01*
X38452380Y-152819761D01*
X39261904Y-152200714D02*
X39500000Y-152867380D01*
X39738095Y-152200714D02*
X39500000Y-152867380D01*
X39404761Y-153105476D01*
X39357142Y-153153095D01*
X39261904Y-153200714D01*
X40119047Y-152867380D02*
X40119047Y-152200714D01*
X40119047Y-152391190D02*
X40166666Y-152295952D01*
X40214285Y-152248333D01*
X40309523Y-152200714D01*
X40404761Y-152200714D01*
X40738095Y-152867380D02*
X40738095Y-152200714D01*
X40738095Y-151867380D02*
X40690476Y-151915000D01*
X40738095Y-151962619D01*
X40785714Y-151915000D01*
X40738095Y-151867380D01*
X40738095Y-151962619D01*
X41642857Y-152200714D02*
X41642857Y-153010238D01*
X41595238Y-153105476D01*
X41547619Y-153153095D01*
X41452380Y-153200714D01*
X41309523Y-153200714D01*
X41214285Y-153153095D01*
X41642857Y-152819761D02*
X41547619Y-152867380D01*
X41357142Y-152867380D01*
X41261904Y-152819761D01*
X41214285Y-152772142D01*
X41166666Y-152676904D01*
X41166666Y-152391190D01*
X41214285Y-152295952D01*
X41261904Y-152248333D01*
X41357142Y-152200714D01*
X41547619Y-152200714D01*
X41642857Y-152248333D01*
X42119047Y-152867380D02*
X42119047Y-151867380D01*
X42547619Y-152867380D02*
X42547619Y-152343571D01*
X42500000Y-152248333D01*
X42404761Y-152200714D01*
X42261904Y-152200714D01*
X42166666Y-152248333D01*
X42119047Y-152295952D01*
X42880952Y-152200714D02*
X43261904Y-152200714D01*
X43023809Y-151867380D02*
X43023809Y-152724523D01*
X43071428Y-152819761D01*
X43166666Y-152867380D01*
X43261904Y-152867380D01*
X44642857Y-153248333D02*
X44595238Y-153200714D01*
X44499999Y-153057857D01*
X44452380Y-152962619D01*
X44404761Y-152819761D01*
X44357142Y-152581666D01*
X44357142Y-152391190D01*
X44404761Y-152153095D01*
X44452380Y-152010238D01*
X44499999Y-151915000D01*
X44595238Y-151772142D01*
X44642857Y-151724523D01*
X45595238Y-152772142D02*
X45547619Y-152819761D01*
X45404761Y-152867380D01*
X45309523Y-152867380D01*
X45166666Y-152819761D01*
X45071428Y-152724523D01*
X45023809Y-152629285D01*
X44976190Y-152438809D01*
X44976190Y-152295952D01*
X45023809Y-152105476D01*
X45071428Y-152010238D01*
X45166666Y-151915000D01*
X45309523Y-151867380D01*
X45404761Y-151867380D01*
X45547619Y-151915000D01*
X45595238Y-151962619D01*
X45928571Y-153248333D02*
X45976190Y-153200714D01*
X46071428Y-153057857D01*
X46119047Y-152962619D01*
X46166666Y-152819761D01*
X46214285Y-152581666D01*
X46214285Y-152391190D01*
X46166666Y-152153095D01*
X46119047Y-152010238D01*
X46071428Y-151915000D01*
X45976190Y-151772142D01*
X45928571Y-151724523D01*
X47404761Y-152819761D02*
X47547619Y-152867380D01*
X47785714Y-152867380D01*
X47880952Y-152819761D01*
X47928571Y-152772142D01*
X47976190Y-152676904D01*
X47976190Y-152581666D01*
X47928571Y-152486428D01*
X47880952Y-152438809D01*
X47785714Y-152391190D01*
X47595238Y-152343571D01*
X47499999Y-152295952D01*
X47452380Y-152248333D01*
X47404761Y-152153095D01*
X47404761Y-152057857D01*
X47452380Y-151962619D01*
X47499999Y-151915000D01*
X47595238Y-151867380D01*
X47833333Y-151867380D01*
X47976190Y-151915000D01*
X48261904Y-152200714D02*
X48642857Y-152200714D01*
X48404761Y-151867380D02*
X48404761Y-152724523D01*
X48452380Y-152819761D01*
X48547619Y-152867380D01*
X48642857Y-152867380D01*
X49404761Y-152867380D02*
X49404761Y-152343571D01*
X49357142Y-152248333D01*
X49261904Y-152200714D01*
X49071428Y-152200714D01*
X48976190Y-152248333D01*
X49404761Y-152819761D02*
X49309523Y-152867380D01*
X49071428Y-152867380D01*
X48976190Y-152819761D01*
X48928571Y-152724523D01*
X48928571Y-152629285D01*
X48976190Y-152534047D01*
X49071428Y-152486428D01*
X49309523Y-152486428D01*
X49404761Y-152438809D01*
X49880952Y-152200714D02*
X49880952Y-152867380D01*
X49880952Y-152295952D02*
X49928571Y-152248333D01*
X50023809Y-152200714D01*
X50166666Y-152200714D01*
X50261904Y-152248333D01*
X50309523Y-152343571D01*
X50309523Y-152867380D01*
X50928571Y-152867380D02*
X50833333Y-152819761D01*
X50785714Y-152724523D01*
X50785714Y-151867380D01*
X51690476Y-152819761D02*
X51595238Y-152867380D01*
X51404761Y-152867380D01*
X51309523Y-152819761D01*
X51261904Y-152724523D01*
X51261904Y-152343571D01*
X51309523Y-152248333D01*
X51404761Y-152200714D01*
X51595238Y-152200714D01*
X51690476Y-152248333D01*
X51738095Y-152343571D01*
X51738095Y-152438809D01*
X51261904Y-152534047D01*
X52071428Y-152200714D02*
X52309523Y-152867380D01*
X52547619Y-152200714D02*
X52309523Y-152867380D01*
X52214285Y-153105476D01*
X52166666Y-153153095D01*
X52071428Y-153200714D01*
X54166666Y-152867380D02*
X53690476Y-152867380D01*
X53690476Y-151867380D01*
X54928571Y-152867380D02*
X54928571Y-152343571D01*
X54880952Y-152248333D01*
X54785714Y-152200714D01*
X54595238Y-152200714D01*
X54499999Y-152248333D01*
X54928571Y-152819761D02*
X54833333Y-152867380D01*
X54595238Y-152867380D01*
X54499999Y-152819761D01*
X54452380Y-152724523D01*
X54452380Y-152629285D01*
X54499999Y-152534047D01*
X54595238Y-152486428D01*
X54833333Y-152486428D01*
X54928571Y-152438809D01*
X55404761Y-152200714D02*
X55404761Y-152867380D01*
X55404761Y-152295952D02*
X55452380Y-152248333D01*
X55547619Y-152200714D01*
X55690476Y-152200714D01*
X55785714Y-152248333D01*
X55833333Y-152343571D01*
X55833333Y-152867380D01*
X56738095Y-152819761D02*
X56642857Y-152867380D01*
X56452380Y-152867380D01*
X56357142Y-152819761D01*
X56309523Y-152772142D01*
X56261904Y-152676904D01*
X56261904Y-152391190D01*
X56309523Y-152295952D01*
X56357142Y-152248333D01*
X56452380Y-152200714D01*
X56642857Y-152200714D01*
X56738095Y-152248333D01*
X57595238Y-152867380D02*
X57595238Y-152343571D01*
X57547619Y-152248333D01*
X57452380Y-152200714D01*
X57261904Y-152200714D01*
X57166666Y-152248333D01*
X57595238Y-152819761D02*
X57499999Y-152867380D01*
X57261904Y-152867380D01*
X57166666Y-152819761D01*
X57119047Y-152724523D01*
X57119047Y-152629285D01*
X57166666Y-152534047D01*
X57261904Y-152486428D01*
X57499999Y-152486428D01*
X57595238Y-152438809D01*
X58023809Y-152819761D02*
X58119047Y-152867380D01*
X58309523Y-152867380D01*
X58404761Y-152819761D01*
X58452380Y-152724523D01*
X58452380Y-152676904D01*
X58404761Y-152581666D01*
X58309523Y-152534047D01*
X58166666Y-152534047D01*
X58071428Y-152486428D01*
X58023809Y-152391190D01*
X58023809Y-152343571D01*
X58071428Y-152248333D01*
X58166666Y-152200714D01*
X58309523Y-152200714D01*
X58404761Y-152248333D01*
X58738095Y-152200714D02*
X59119047Y-152200714D01*
X58880952Y-151867380D02*
X58880952Y-152724523D01*
X58928571Y-152819761D01*
X59023809Y-152867380D01*
X59119047Y-152867380D01*
X59833333Y-152819761D02*
X59738095Y-152867380D01*
X59547619Y-152867380D01*
X59452380Y-152819761D01*
X59404761Y-152724523D01*
X59404761Y-152343571D01*
X59452380Y-152248333D01*
X59547619Y-152200714D01*
X59738095Y-152200714D01*
X59833333Y-152248333D01*
X59880952Y-152343571D01*
X59880952Y-152438809D01*
X59404761Y-152534047D01*
X60309523Y-152867380D02*
X60309523Y-152200714D01*
X60309523Y-152391190D02*
X60357142Y-152295952D01*
X60404761Y-152248333D01*
X60499999Y-152200714D01*
X60595238Y-152200714D01*
%TO.C,J5*%
X73396666Y-26682380D02*
X73396666Y-27396666D01*
X73349047Y-27539523D01*
X73253809Y-27634761D01*
X73110952Y-27682380D01*
X73015714Y-27682380D01*
X74349047Y-26682380D02*
X73872857Y-26682380D01*
X73825238Y-27158571D01*
X73872857Y-27110952D01*
X73968095Y-27063333D01*
X74206190Y-27063333D01*
X74301428Y-27110952D01*
X74349047Y-27158571D01*
X74396666Y-27253809D01*
X74396666Y-27491904D01*
X74349047Y-27587142D01*
X74301428Y-27634761D01*
X74206190Y-27682380D01*
X73968095Y-27682380D01*
X73872857Y-27634761D01*
X73825238Y-27587142D01*
%TO.C,J7*%
X93396666Y-26682380D02*
X93396666Y-27396666D01*
X93349047Y-27539523D01*
X93253809Y-27634761D01*
X93110952Y-27682380D01*
X93015714Y-27682380D01*
X93777619Y-26682380D02*
X94444285Y-26682380D01*
X94015714Y-27682380D01*
%TO.C,J4*%
X53396666Y-91682380D02*
X53396666Y-92396666D01*
X53349047Y-92539523D01*
X53253809Y-92634761D01*
X53110952Y-92682380D01*
X53015714Y-92682380D01*
X54301428Y-92015714D02*
X54301428Y-92682380D01*
X54063333Y-91634761D02*
X53825238Y-92349047D01*
X54444285Y-92349047D01*
%TO.C,J6*%
X73396666Y-91682380D02*
X73396666Y-92396666D01*
X73349047Y-92539523D01*
X73253809Y-92634761D01*
X73110952Y-92682380D01*
X73015714Y-92682380D01*
X74301428Y-91682380D02*
X74110952Y-91682380D01*
X74015714Y-91730000D01*
X73968095Y-91777619D01*
X73872857Y-91920476D01*
X73825238Y-92110952D01*
X73825238Y-92491904D01*
X73872857Y-92587142D01*
X73920476Y-92634761D01*
X74015714Y-92682380D01*
X74206190Y-92682380D01*
X74301428Y-92634761D01*
X74349047Y-92587142D01*
X74396666Y-92491904D01*
X74396666Y-92253809D01*
X74349047Y-92158571D01*
X74301428Y-92110952D01*
X74206190Y-92063333D01*
X74015714Y-92063333D01*
X73920476Y-92110952D01*
X73872857Y-92158571D01*
X73825238Y-92253809D01*
%TO.C,C3*%
X240833333Y-92107142D02*
X240785714Y-92154761D01*
X240642857Y-92202380D01*
X240547619Y-92202380D01*
X240404761Y-92154761D01*
X240309523Y-92059523D01*
X240261904Y-91964285D01*
X240214285Y-91773809D01*
X240214285Y-91630952D01*
X240261904Y-91440476D01*
X240309523Y-91345238D01*
X240404761Y-91250000D01*
X240547619Y-91202380D01*
X240642857Y-91202380D01*
X240785714Y-91250000D01*
X240833333Y-91297619D01*
X241166666Y-91202380D02*
X241785714Y-91202380D01*
X241452380Y-91583333D01*
X241595238Y-91583333D01*
X241690476Y-91630952D01*
X241738095Y-91678571D01*
X241785714Y-91773809D01*
X241785714Y-92011904D01*
X241738095Y-92107142D01*
X241690476Y-92154761D01*
X241595238Y-92202380D01*
X241309523Y-92202380D01*
X241214285Y-92154761D01*
X241166666Y-92107142D01*
%TO.C,J20*%
X212920476Y-91682380D02*
X212920476Y-92396666D01*
X212872857Y-92539523D01*
X212777619Y-92634761D01*
X212634761Y-92682380D01*
X212539523Y-92682380D01*
X213349047Y-91777619D02*
X213396666Y-91730000D01*
X213491904Y-91682380D01*
X213730000Y-91682380D01*
X213825238Y-91730000D01*
X213872857Y-91777619D01*
X213920476Y-91872857D01*
X213920476Y-91968095D01*
X213872857Y-92110952D01*
X213301428Y-92682380D01*
X213920476Y-92682380D01*
X214539523Y-91682380D02*
X214634761Y-91682380D01*
X214730000Y-91730000D01*
X214777619Y-91777619D01*
X214825238Y-91872857D01*
X214872857Y-92063333D01*
X214872857Y-92301428D01*
X214825238Y-92491904D01*
X214777619Y-92587142D01*
X214730000Y-92634761D01*
X214634761Y-92682380D01*
X214539523Y-92682380D01*
X214444285Y-92634761D01*
X214396666Y-92587142D01*
X214349047Y-92491904D01*
X214301428Y-92301428D01*
X214301428Y-92063333D01*
X214349047Y-91872857D01*
X214396666Y-91777619D01*
X214444285Y-91730000D01*
X214539523Y-91682380D01*
%TO.C,J9*%
X113396666Y-26682380D02*
X113396666Y-27396666D01*
X113349047Y-27539523D01*
X113253809Y-27634761D01*
X113110952Y-27682380D01*
X113015714Y-27682380D01*
X113920476Y-27682380D02*
X114110952Y-27682380D01*
X114206190Y-27634761D01*
X114253809Y-27587142D01*
X114349047Y-27444285D01*
X114396666Y-27253809D01*
X114396666Y-26872857D01*
X114349047Y-26777619D01*
X114301428Y-26730000D01*
X114206190Y-26682380D01*
X114015714Y-26682380D01*
X113920476Y-26730000D01*
X113872857Y-26777619D01*
X113825238Y-26872857D01*
X113825238Y-27110952D01*
X113872857Y-27206190D01*
X113920476Y-27253809D01*
X114015714Y-27301428D01*
X114206190Y-27301428D01*
X114301428Y-27253809D01*
X114349047Y-27206190D01*
X114396666Y-27110952D01*
%TO.C,J19*%
X212920476Y-26682380D02*
X212920476Y-27396666D01*
X212872857Y-27539523D01*
X212777619Y-27634761D01*
X212634761Y-27682380D01*
X212539523Y-27682380D01*
X213920476Y-27682380D02*
X213349047Y-27682380D01*
X213634761Y-27682380D02*
X213634761Y-26682380D01*
X213539523Y-26825238D01*
X213444285Y-26920476D01*
X213349047Y-26968095D01*
X214396666Y-27682380D02*
X214587142Y-27682380D01*
X214682380Y-27634761D01*
X214730000Y-27587142D01*
X214825238Y-27444285D01*
X214872857Y-27253809D01*
X214872857Y-26872857D01*
X214825238Y-26777619D01*
X214777619Y-26730000D01*
X214682380Y-26682380D01*
X214491904Y-26682380D01*
X214396666Y-26730000D01*
X214349047Y-26777619D01*
X214301428Y-26872857D01*
X214301428Y-27110952D01*
X214349047Y-27206190D01*
X214396666Y-27253809D01*
X214491904Y-27301428D01*
X214682380Y-27301428D01*
X214777619Y-27253809D01*
X214825238Y-27206190D01*
X214872857Y-27110952D01*
%TO.C,J16*%
X172920476Y-91682380D02*
X172920476Y-92396666D01*
X172872857Y-92539523D01*
X172777619Y-92634761D01*
X172634761Y-92682380D01*
X172539523Y-92682380D01*
X173920476Y-92682380D02*
X173349047Y-92682380D01*
X173634761Y-92682380D02*
X173634761Y-91682380D01*
X173539523Y-91825238D01*
X173444285Y-91920476D01*
X173349047Y-91968095D01*
X174777619Y-91682380D02*
X174587142Y-91682380D01*
X174491904Y-91730000D01*
X174444285Y-91777619D01*
X174349047Y-91920476D01*
X174301428Y-92110952D01*
X174301428Y-92491904D01*
X174349047Y-92587142D01*
X174396666Y-92634761D01*
X174491904Y-92682380D01*
X174682380Y-92682380D01*
X174777619Y-92634761D01*
X174825238Y-92587142D01*
X174872857Y-92491904D01*
X174872857Y-92253809D01*
X174825238Y-92158571D01*
X174777619Y-92110952D01*
X174682380Y-92063333D01*
X174491904Y-92063333D01*
X174396666Y-92110952D01*
X174349047Y-92158571D01*
X174301428Y-92253809D01*
%TO.C,C4*%
X43833333Y-98607142D02*
X43785714Y-98654761D01*
X43642857Y-98702380D01*
X43547619Y-98702380D01*
X43404761Y-98654761D01*
X43309523Y-98559523D01*
X43261904Y-98464285D01*
X43214285Y-98273809D01*
X43214285Y-98130952D01*
X43261904Y-97940476D01*
X43309523Y-97845238D01*
X43404761Y-97750000D01*
X43547619Y-97702380D01*
X43642857Y-97702380D01*
X43785714Y-97750000D01*
X43833333Y-97797619D01*
X44690476Y-98035714D02*
X44690476Y-98702380D01*
X44452380Y-97654761D02*
X44214285Y-98369047D01*
X44833333Y-98369047D01*
%TO.C,J21*%
X232920476Y-26682380D02*
X232920476Y-27396666D01*
X232872857Y-27539523D01*
X232777619Y-27634761D01*
X232634761Y-27682380D01*
X232539523Y-27682380D01*
X233349047Y-26777619D02*
X233396666Y-26730000D01*
X233491904Y-26682380D01*
X233730000Y-26682380D01*
X233825238Y-26730000D01*
X233872857Y-26777619D01*
X233920476Y-26872857D01*
X233920476Y-26968095D01*
X233872857Y-27110952D01*
X233301428Y-27682380D01*
X233920476Y-27682380D01*
X234872857Y-27682380D02*
X234301428Y-27682380D01*
X234587142Y-27682380D02*
X234587142Y-26682380D01*
X234491904Y-26825238D01*
X234396666Y-26920476D01*
X234301428Y-26968095D01*
%TO.C,J13*%
X152920476Y-26682380D02*
X152920476Y-27396666D01*
X152872857Y-27539523D01*
X152777619Y-27634761D01*
X152634761Y-27682380D01*
X152539523Y-27682380D01*
X153920476Y-27682380D02*
X153349047Y-27682380D01*
X153634761Y-27682380D02*
X153634761Y-26682380D01*
X153539523Y-26825238D01*
X153444285Y-26920476D01*
X153349047Y-26968095D01*
X154253809Y-26682380D02*
X154872857Y-26682380D01*
X154539523Y-27063333D01*
X154682380Y-27063333D01*
X154777619Y-27110952D01*
X154825238Y-27158571D01*
X154872857Y-27253809D01*
X154872857Y-27491904D01*
X154825238Y-27587142D01*
X154777619Y-27634761D01*
X154682380Y-27682380D01*
X154396666Y-27682380D01*
X154301428Y-27634761D01*
X154253809Y-27587142D01*
%TO.C,J10*%
X112920476Y-91682380D02*
X112920476Y-92396666D01*
X112872857Y-92539523D01*
X112777619Y-92634761D01*
X112634761Y-92682380D01*
X112539523Y-92682380D01*
X113920476Y-92682380D02*
X113349047Y-92682380D01*
X113634761Y-92682380D02*
X113634761Y-91682380D01*
X113539523Y-91825238D01*
X113444285Y-91920476D01*
X113349047Y-91968095D01*
X114539523Y-91682380D02*
X114634761Y-91682380D01*
X114730000Y-91730000D01*
X114777619Y-91777619D01*
X114825238Y-91872857D01*
X114872857Y-92063333D01*
X114872857Y-92301428D01*
X114825238Y-92491904D01*
X114777619Y-92587142D01*
X114730000Y-92634761D01*
X114634761Y-92682380D01*
X114539523Y-92682380D01*
X114444285Y-92634761D01*
X114396666Y-92587142D01*
X114349047Y-92491904D01*
X114301428Y-92301428D01*
X114301428Y-92063333D01*
X114349047Y-91872857D01*
X114396666Y-91777619D01*
X114444285Y-91730000D01*
X114539523Y-91682380D01*
%TO.C,J2*%
X254666666Y-22952380D02*
X254666666Y-23666666D01*
X254619047Y-23809523D01*
X254523809Y-23904761D01*
X254380952Y-23952380D01*
X254285714Y-23952380D01*
X255095238Y-23047619D02*
X255142857Y-23000000D01*
X255238095Y-22952380D01*
X255476190Y-22952380D01*
X255571428Y-23000000D01*
X255619047Y-23047619D01*
X255666666Y-23142857D01*
X255666666Y-23238095D01*
X255619047Y-23380952D01*
X255047619Y-23952380D01*
X255666666Y-23952380D01*
%TO.C,J1*%
X254666666Y-42952380D02*
X254666666Y-43666666D01*
X254619047Y-43809523D01*
X254523809Y-43904761D01*
X254380952Y-43952380D01*
X254285714Y-43952380D01*
X255666666Y-43952380D02*
X255095238Y-43952380D01*
X255380952Y-43952380D02*
X255380952Y-42952380D01*
X255285714Y-43095238D01*
X255190476Y-43190476D01*
X255095238Y-43238095D01*
%TO.C,C2*%
X43833333Y-33607142D02*
X43785714Y-33654761D01*
X43642857Y-33702380D01*
X43547619Y-33702380D01*
X43404761Y-33654761D01*
X43309523Y-33559523D01*
X43261904Y-33464285D01*
X43214285Y-33273809D01*
X43214285Y-33130952D01*
X43261904Y-32940476D01*
X43309523Y-32845238D01*
X43404761Y-32750000D01*
X43547619Y-32702380D01*
X43642857Y-32702380D01*
X43785714Y-32750000D01*
X43833333Y-32797619D01*
X44214285Y-32797619D02*
X44261904Y-32750000D01*
X44357142Y-32702380D01*
X44595238Y-32702380D01*
X44690476Y-32750000D01*
X44738095Y-32797619D01*
X44785714Y-32892857D01*
X44785714Y-32988095D01*
X44738095Y-33130952D01*
X44166666Y-33702380D01*
X44785714Y-33702380D01*
%TO.C,J11*%
X132920476Y-26682380D02*
X132920476Y-27396666D01*
X132872857Y-27539523D01*
X132777619Y-27634761D01*
X132634761Y-27682380D01*
X132539523Y-27682380D01*
X133920476Y-27682380D02*
X133349047Y-27682380D01*
X133634761Y-27682380D02*
X133634761Y-26682380D01*
X133539523Y-26825238D01*
X133444285Y-26920476D01*
X133349047Y-26968095D01*
X134872857Y-27682380D02*
X134301428Y-27682380D01*
X134587142Y-27682380D02*
X134587142Y-26682380D01*
X134491904Y-26825238D01*
X134396666Y-26920476D01*
X134301428Y-26968095D01*
%TO.C,J12*%
X132920476Y-91682380D02*
X132920476Y-92396666D01*
X132872857Y-92539523D01*
X132777619Y-92634761D01*
X132634761Y-92682380D01*
X132539523Y-92682380D01*
X133920476Y-92682380D02*
X133349047Y-92682380D01*
X133634761Y-92682380D02*
X133634761Y-91682380D01*
X133539523Y-91825238D01*
X133444285Y-91920476D01*
X133349047Y-91968095D01*
X134301428Y-91777619D02*
X134349047Y-91730000D01*
X134444285Y-91682380D01*
X134682380Y-91682380D01*
X134777619Y-91730000D01*
X134825238Y-91777619D01*
X134872857Y-91872857D01*
X134872857Y-91968095D01*
X134825238Y-92110952D01*
X134253809Y-92682380D01*
X134872857Y-92682380D01*
%TO.C,C1*%
X246607142Y-31166666D02*
X246654761Y-31214285D01*
X246702380Y-31357142D01*
X246702380Y-31452380D01*
X246654761Y-31595238D01*
X246559523Y-31690476D01*
X246464285Y-31738095D01*
X246273809Y-31785714D01*
X246130952Y-31785714D01*
X245940476Y-31738095D01*
X245845238Y-31690476D01*
X245750000Y-31595238D01*
X245702380Y-31452380D01*
X245702380Y-31357142D01*
X245750000Y-31214285D01*
X245797619Y-31166666D01*
X246702380Y-30214285D02*
X246702380Y-30785714D01*
X246702380Y-30500000D02*
X245702380Y-30500000D01*
X245845238Y-30595238D01*
X245940476Y-30690476D01*
X245988095Y-30785714D01*
%TO.C,J8*%
X93396666Y-91682380D02*
X93396666Y-92396666D01*
X93349047Y-92539523D01*
X93253809Y-92634761D01*
X93110952Y-92682380D01*
X93015714Y-92682380D01*
X94015714Y-92110952D02*
X93920476Y-92063333D01*
X93872857Y-92015714D01*
X93825238Y-91920476D01*
X93825238Y-91872857D01*
X93872857Y-91777619D01*
X93920476Y-91730000D01*
X94015714Y-91682380D01*
X94206190Y-91682380D01*
X94301428Y-91730000D01*
X94349047Y-91777619D01*
X94396666Y-91872857D01*
X94396666Y-91920476D01*
X94349047Y-92015714D01*
X94301428Y-92063333D01*
X94206190Y-92110952D01*
X94015714Y-92110952D01*
X93920476Y-92158571D01*
X93872857Y-92206190D01*
X93825238Y-92301428D01*
X93825238Y-92491904D01*
X93872857Y-92587142D01*
X93920476Y-92634761D01*
X94015714Y-92682380D01*
X94206190Y-92682380D01*
X94301428Y-92634761D01*
X94349047Y-92587142D01*
X94396666Y-92491904D01*
X94396666Y-92301428D01*
X94349047Y-92206190D01*
X94301428Y-92158571D01*
X94206190Y-92110952D01*
%TO.C,J17*%
X192920476Y-26682380D02*
X192920476Y-27396666D01*
X192872857Y-27539523D01*
X192777619Y-27634761D01*
X192634761Y-27682380D01*
X192539523Y-27682380D01*
X193920476Y-27682380D02*
X193349047Y-27682380D01*
X193634761Y-27682380D02*
X193634761Y-26682380D01*
X193539523Y-26825238D01*
X193444285Y-26920476D01*
X193349047Y-26968095D01*
X194253809Y-26682380D02*
X194920476Y-26682380D01*
X194491904Y-27682380D01*
%TO.C,J22*%
X232920476Y-91682380D02*
X232920476Y-92396666D01*
X232872857Y-92539523D01*
X232777619Y-92634761D01*
X232634761Y-92682380D01*
X232539523Y-92682380D01*
X233349047Y-91777619D02*
X233396666Y-91730000D01*
X233491904Y-91682380D01*
X233730000Y-91682380D01*
X233825238Y-91730000D01*
X233872857Y-91777619D01*
X233920476Y-91872857D01*
X233920476Y-91968095D01*
X233872857Y-92110952D01*
X233301428Y-92682380D01*
X233920476Y-92682380D01*
X234301428Y-91777619D02*
X234349047Y-91730000D01*
X234444285Y-91682380D01*
X234682380Y-91682380D01*
X234777619Y-91730000D01*
X234825238Y-91777619D01*
X234872857Y-91872857D01*
X234872857Y-91968095D01*
X234825238Y-92110952D01*
X234253809Y-92682380D01*
X234872857Y-92682380D01*
%TO.C,J14*%
X152920476Y-91682380D02*
X152920476Y-92396666D01*
X152872857Y-92539523D01*
X152777619Y-92634761D01*
X152634761Y-92682380D01*
X152539523Y-92682380D01*
X153920476Y-92682380D02*
X153349047Y-92682380D01*
X153634761Y-92682380D02*
X153634761Y-91682380D01*
X153539523Y-91825238D01*
X153444285Y-91920476D01*
X153349047Y-91968095D01*
X154777619Y-92015714D02*
X154777619Y-92682380D01*
X154539523Y-91634761D02*
X154301428Y-92349047D01*
X154920476Y-92349047D01*
%TO.C,J3*%
X53396666Y-26682380D02*
X53396666Y-27396666D01*
X53349047Y-27539523D01*
X53253809Y-27634761D01*
X53110952Y-27682380D01*
X53015714Y-27682380D01*
X53777619Y-26682380D02*
X54396666Y-26682380D01*
X54063333Y-27063333D01*
X54206190Y-27063333D01*
X54301428Y-27110952D01*
X54349047Y-27158571D01*
X54396666Y-27253809D01*
X54396666Y-27491904D01*
X54349047Y-27587142D01*
X54301428Y-27634761D01*
X54206190Y-27682380D01*
X53920476Y-27682380D01*
X53825238Y-27634761D01*
X53777619Y-27587142D01*
%TO.C,J15*%
X172920476Y-26682380D02*
X172920476Y-27396666D01*
X172872857Y-27539523D01*
X172777619Y-27634761D01*
X172634761Y-27682380D01*
X172539523Y-27682380D01*
X173920476Y-27682380D02*
X173349047Y-27682380D01*
X173634761Y-27682380D02*
X173634761Y-26682380D01*
X173539523Y-26825238D01*
X173444285Y-26920476D01*
X173349047Y-26968095D01*
X174825238Y-26682380D02*
X174349047Y-26682380D01*
X174301428Y-27158571D01*
X174349047Y-27110952D01*
X174444285Y-27063333D01*
X174682380Y-27063333D01*
X174777619Y-27110952D01*
X174825238Y-27158571D01*
X174872857Y-27253809D01*
X174872857Y-27491904D01*
X174825238Y-27587142D01*
X174777619Y-27634761D01*
X174682380Y-27682380D01*
X174444285Y-27682380D01*
X174349047Y-27634761D01*
X174301428Y-27587142D01*
%TO.C,J18*%
X192920476Y-91682380D02*
X192920476Y-92396666D01*
X192872857Y-92539523D01*
X192777619Y-92634761D01*
X192634761Y-92682380D01*
X192539523Y-92682380D01*
X193920476Y-92682380D02*
X193349047Y-92682380D01*
X193634761Y-92682380D02*
X193634761Y-91682380D01*
X193539523Y-91825238D01*
X193444285Y-91920476D01*
X193349047Y-91968095D01*
X194491904Y-92110952D02*
X194396666Y-92063333D01*
X194349047Y-92015714D01*
X194301428Y-91920476D01*
X194301428Y-91872857D01*
X194349047Y-91777619D01*
X194396666Y-91730000D01*
X194491904Y-91682380D01*
X194682380Y-91682380D01*
X194777619Y-91730000D01*
X194825238Y-91777619D01*
X194872857Y-91872857D01*
X194872857Y-91920476D01*
X194825238Y-92015714D01*
X194777619Y-92063333D01*
X194682380Y-92110952D01*
X194491904Y-92110952D01*
X194396666Y-92158571D01*
X194349047Y-92206190D01*
X194301428Y-92301428D01*
X194301428Y-92491904D01*
X194349047Y-92587142D01*
X194396666Y-92634761D01*
X194491904Y-92682380D01*
X194682380Y-92682380D01*
X194777619Y-92634761D01*
X194825238Y-92587142D01*
X194872857Y-92491904D01*
X194872857Y-92301428D01*
X194825238Y-92206190D01*
X194777619Y-92158571D01*
X194682380Y-92110952D01*
D11*
%TO.C,J5*%
X76330000Y-31270000D02*
X76330000Y-79590000D01*
X76330000Y-28670000D02*
X76330000Y-30000000D01*
X75000000Y-28670000D02*
X76330000Y-28670000D01*
X71130000Y-28670000D02*
X73730000Y-28670000D01*
X73730000Y-28670000D02*
X73730000Y-31270000D01*
X71130000Y-28670000D02*
X71130000Y-79590000D01*
X71130000Y-79590000D02*
X76330000Y-79590000D01*
X73730000Y-31270000D02*
X76330000Y-31270000D01*
%TO.C,J7*%
X91130000Y-79590000D02*
X96330000Y-79590000D01*
X91130000Y-28670000D02*
X93730000Y-28670000D01*
X91130000Y-28670000D02*
X91130000Y-79590000D01*
X95000000Y-28670000D02*
X96330000Y-28670000D01*
X96330000Y-28670000D02*
X96330000Y-30000000D01*
X93730000Y-31270000D02*
X96330000Y-31270000D01*
X96330000Y-31270000D02*
X96330000Y-79590000D01*
X93730000Y-28670000D02*
X93730000Y-31270000D01*
%TO.C,J4*%
X51130000Y-93670000D02*
X51130000Y-144590000D01*
X53730000Y-93670000D02*
X53730000Y-96270000D01*
X56330000Y-93670000D02*
X56330000Y-95000000D01*
X55000000Y-93670000D02*
X56330000Y-93670000D01*
X51130000Y-144590000D02*
X56330000Y-144590000D01*
X51130000Y-93670000D02*
X53730000Y-93670000D01*
X56330000Y-96270000D02*
X56330000Y-144590000D01*
X53730000Y-96270000D02*
X56330000Y-96270000D01*
%TO.C,J6*%
X73730000Y-96270000D02*
X76330000Y-96270000D01*
X71130000Y-93670000D02*
X73730000Y-93670000D01*
X71130000Y-93670000D02*
X71130000Y-144590000D01*
X76330000Y-93670000D02*
X76330000Y-95000000D01*
X73730000Y-93670000D02*
X73730000Y-96270000D01*
X76330000Y-96270000D02*
X76330000Y-144590000D01*
X71130000Y-144590000D02*
X76330000Y-144590000D01*
X75000000Y-93670000D02*
X76330000Y-93670000D01*
%TO.C,C3*%
X241801000Y-95840000D02*
X241801000Y-96924000D01*
X242361000Y-95840000D02*
X242361000Y-96587000D01*
X242521000Y-95840000D02*
X242521000Y-96438000D01*
X242041000Y-93192000D02*
X242041000Y-94160000D01*
X241921000Y-95840000D02*
X241921000Y-96870000D01*
X242801000Y-93920000D02*
X242801000Y-94160000D01*
X243001000Y-94336000D02*
X243001000Y-95664000D01*
X241881000Y-95840000D02*
X241881000Y-96889000D01*
X242121000Y-95840000D02*
X242121000Y-96760000D01*
X238730199Y-93805000D02*
X239130199Y-93805000D01*
X242481000Y-95840000D02*
X242481000Y-96478000D01*
X241721000Y-93046000D02*
X241721000Y-94160000D01*
X242601000Y-93649000D02*
X242601000Y-94160000D01*
X242201000Y-95840000D02*
X242201000Y-96708000D01*
X242041000Y-95840000D02*
X242041000Y-96808000D01*
X242121000Y-93240000D02*
X242121000Y-94160000D01*
X241640000Y-93018000D02*
X241640000Y-94160000D01*
X241680000Y-95840000D02*
X241680000Y-96968000D01*
X242161000Y-95840000D02*
X242161000Y-96735000D01*
X241080000Y-92921000D02*
X241080000Y-97079000D01*
X242241000Y-93320000D02*
X242241000Y-94160000D01*
X241440000Y-92966000D02*
X241440000Y-94160000D01*
X241761000Y-93060000D02*
X241761000Y-94160000D01*
X241961000Y-93149000D02*
X241961000Y-94160000D01*
X242921000Y-94141000D02*
X242921000Y-95859000D01*
X242641000Y-95840000D02*
X242641000Y-96304000D01*
X241560000Y-92995000D02*
X241560000Y-94160000D01*
X241040000Y-92920000D02*
X241040000Y-97080000D01*
X242961000Y-94232000D02*
X242961000Y-95768000D01*
X242081000Y-95840000D02*
X242081000Y-96785000D01*
X241280000Y-92938000D02*
X241280000Y-94160000D01*
X241160000Y-92926000D02*
X241160000Y-97074000D01*
X242281000Y-95840000D02*
X242281000Y-96650000D01*
X241721000Y-95840000D02*
X241721000Y-96954000D01*
X241600000Y-95840000D02*
X241600000Y-96994000D01*
X241200000Y-95840000D02*
X241200000Y-97071000D01*
X242681000Y-95840000D02*
X242681000Y-96254000D01*
X242561000Y-93604000D02*
X242561000Y-94160000D01*
X241280000Y-95840000D02*
X241280000Y-97062000D01*
X242001000Y-95840000D02*
X242001000Y-96830000D01*
X241440000Y-95840000D02*
X241440000Y-97034000D01*
X238930199Y-93605000D02*
X238930199Y-94005000D01*
X242401000Y-93448000D02*
X242401000Y-94160000D01*
X242521000Y-93562000D02*
X242521000Y-94160000D01*
X242681000Y-93746000D02*
X242681000Y-94160000D01*
X242721000Y-93800000D02*
X242721000Y-94160000D01*
X241520000Y-95840000D02*
X241520000Y-97016000D01*
X241881000Y-93111000D02*
X241881000Y-94160000D01*
X241240000Y-92933000D02*
X241240000Y-94160000D01*
X242881000Y-94060000D02*
X242881000Y-95940000D01*
X242201000Y-93292000D02*
X242201000Y-94160000D01*
X241320000Y-92944000D02*
X241320000Y-94160000D01*
X241841000Y-95840000D02*
X241841000Y-96907000D01*
X242081000Y-93215000D02*
X242081000Y-94160000D01*
X241680000Y-93032000D02*
X241680000Y-94160000D01*
X241120000Y-92923000D02*
X241120000Y-97077000D01*
X241480000Y-92975000D02*
X241480000Y-94160000D01*
X241000000Y-92920000D02*
X241000000Y-97080000D01*
X241400000Y-92958000D02*
X241400000Y-94160000D01*
X241600000Y-93006000D02*
X241600000Y-94160000D01*
X243081000Y-94630000D02*
X243081000Y-95370000D01*
X241961000Y-95840000D02*
X241961000Y-96851000D01*
X242601000Y-95840000D02*
X242601000Y-96351000D01*
X241200000Y-92929000D02*
X241200000Y-94160000D01*
X241841000Y-93093000D02*
X241841000Y-94160000D01*
X242281000Y-93350000D02*
X242281000Y-94160000D01*
X242761000Y-95840000D02*
X242761000Y-96142000D01*
X242561000Y-95840000D02*
X242561000Y-96396000D01*
X241640000Y-95840000D02*
X241640000Y-96982000D01*
X241320000Y-95840000D02*
X241320000Y-97056000D01*
X242321000Y-95840000D02*
X242321000Y-96619000D01*
X241240000Y-95840000D02*
X241240000Y-97067000D01*
X242361000Y-93413000D02*
X242361000Y-94160000D01*
X241801000Y-93076000D02*
X241801000Y-94160000D01*
X241480000Y-95840000D02*
X241480000Y-97025000D01*
X242321000Y-93381000D02*
X242321000Y-94160000D01*
X242001000Y-93170000D02*
X242001000Y-94160000D01*
X241560000Y-95840000D02*
X241560000Y-97005000D01*
X241921000Y-93130000D02*
X241921000Y-94160000D01*
X243041000Y-94463000D02*
X243041000Y-95537000D01*
X241360000Y-92950000D02*
X241360000Y-94160000D01*
X242641000Y-93696000D02*
X242641000Y-94160000D01*
X242441000Y-95840000D02*
X242441000Y-96516000D01*
X241360000Y-95840000D02*
X241360000Y-97050000D01*
X241400000Y-95840000D02*
X241400000Y-97042000D01*
X242721000Y-95840000D02*
X242721000Y-96200000D01*
X242801000Y-95840000D02*
X242801000Y-96080000D01*
X241761000Y-95840000D02*
X241761000Y-96940000D01*
X242481000Y-93522000D02*
X242481000Y-94160000D01*
X242761000Y-93858000D02*
X242761000Y-94160000D01*
X242241000Y-95840000D02*
X242241000Y-96680000D01*
X242161000Y-93265000D02*
X242161000Y-94160000D01*
X242401000Y-95840000D02*
X242401000Y-96552000D01*
X241520000Y-92984000D02*
X241520000Y-94160000D01*
X242841000Y-93987000D02*
X242841000Y-96013000D01*
X242441000Y-93484000D02*
X242441000Y-94160000D01*
X243120000Y-95000000D02*
G75*
G03*
X243120000Y-95000000I-2120000J0D01*
G01*
%TO.C,J20*%
X211130000Y-93670000D02*
X211130000Y-144590000D01*
X215000000Y-93670000D02*
X216330000Y-93670000D01*
X211130000Y-93670000D02*
X213730000Y-93670000D01*
X216330000Y-96270000D02*
X216330000Y-144590000D01*
X211130000Y-144590000D02*
X216330000Y-144590000D01*
X216330000Y-93670000D02*
X216330000Y-95000000D01*
X213730000Y-96270000D02*
X216330000Y-96270000D01*
X213730000Y-93670000D02*
X213730000Y-96270000D01*
%TO.C,J9*%
X116330000Y-28670000D02*
X116330000Y-30000000D01*
X111130000Y-79590000D02*
X116330000Y-79590000D01*
X113730000Y-31270000D02*
X116330000Y-31270000D01*
X113730000Y-28670000D02*
X113730000Y-31270000D01*
X116330000Y-31270000D02*
X116330000Y-79590000D01*
X115000000Y-28670000D02*
X116330000Y-28670000D01*
X111130000Y-28670000D02*
X113730000Y-28670000D01*
X111130000Y-28670000D02*
X111130000Y-79590000D01*
%TO.C,J19*%
X215000000Y-28670000D02*
X216330000Y-28670000D01*
X216330000Y-31270000D02*
X216330000Y-79590000D01*
X211130000Y-28670000D02*
X211130000Y-79590000D01*
X211130000Y-28670000D02*
X213730000Y-28670000D01*
X216330000Y-28670000D02*
X216330000Y-30000000D01*
X213730000Y-31270000D02*
X216330000Y-31270000D01*
X211130000Y-79590000D02*
X216330000Y-79590000D01*
X213730000Y-28670000D02*
X213730000Y-31270000D01*
%TO.C,J16*%
X171130000Y-93670000D02*
X173730000Y-93670000D01*
X173730000Y-93670000D02*
X173730000Y-96270000D01*
X175000000Y-93670000D02*
X176330000Y-93670000D01*
X173730000Y-96270000D02*
X176330000Y-96270000D01*
X176330000Y-93670000D02*
X176330000Y-95000000D01*
X171130000Y-93670000D02*
X171130000Y-144590000D01*
X176330000Y-96270000D02*
X176330000Y-144590000D01*
X171130000Y-144590000D02*
X176330000Y-144590000D01*
%TO.C,C4*%
X42879000Y-94160000D02*
X42879000Y-93240000D01*
X42799000Y-94160000D02*
X42799000Y-93292000D01*
X42799000Y-96708000D02*
X42799000Y-95840000D01*
X43360000Y-94160000D02*
X43360000Y-93018000D01*
X42719000Y-96650000D02*
X42719000Y-95840000D01*
X42959000Y-94160000D02*
X42959000Y-93192000D01*
X43440000Y-97005000D02*
X43440000Y-95840000D01*
X42399000Y-94160000D02*
X42399000Y-93649000D01*
X43119000Y-94160000D02*
X43119000Y-93111000D01*
X46069801Y-96395000D02*
X46069801Y-95995000D01*
X43159000Y-94160000D02*
X43159000Y-93093000D01*
X42399000Y-96351000D02*
X42399000Y-95840000D01*
X42279000Y-94160000D02*
X42279000Y-93800000D01*
X42999000Y-96830000D02*
X42999000Y-95840000D01*
X42839000Y-94160000D02*
X42839000Y-93265000D01*
X42359000Y-94160000D02*
X42359000Y-93696000D01*
X43520000Y-94160000D02*
X43520000Y-92975000D01*
X43880000Y-97077000D02*
X43880000Y-92923000D01*
X42919000Y-96785000D02*
X42919000Y-95840000D01*
X42759000Y-96680000D02*
X42759000Y-95840000D01*
X42319000Y-94160000D02*
X42319000Y-93746000D01*
X43760000Y-97067000D02*
X43760000Y-95840000D01*
X42599000Y-96552000D02*
X42599000Y-95840000D01*
X42119000Y-95940000D02*
X42119000Y-94060000D01*
X43760000Y-94160000D02*
X43760000Y-92933000D01*
X43720000Y-97062000D02*
X43720000Y-95840000D01*
X42079000Y-95859000D02*
X42079000Y-94141000D01*
X43840000Y-97074000D02*
X43840000Y-92926000D01*
X43039000Y-94160000D02*
X43039000Y-93149000D01*
X43199000Y-96924000D02*
X43199000Y-95840000D01*
X41959000Y-95537000D02*
X41959000Y-94463000D01*
X43640000Y-94160000D02*
X43640000Y-92950000D01*
X43960000Y-97080000D02*
X43960000Y-92920000D01*
X42239000Y-94160000D02*
X42239000Y-93858000D01*
X42439000Y-94160000D02*
X42439000Y-93604000D01*
X42479000Y-96438000D02*
X42479000Y-95840000D01*
X43279000Y-94160000D02*
X43279000Y-93046000D01*
X42639000Y-94160000D02*
X42639000Y-93413000D01*
X42719000Y-94160000D02*
X42719000Y-93350000D01*
X42439000Y-96396000D02*
X42439000Y-95840000D01*
X42039000Y-95768000D02*
X42039000Y-94232000D01*
X42239000Y-96142000D02*
X42239000Y-95840000D01*
X43039000Y-96851000D02*
X43039000Y-95840000D01*
X43560000Y-94160000D02*
X43560000Y-92966000D01*
X42839000Y-96735000D02*
X42839000Y-95840000D01*
X43400000Y-96994000D02*
X43400000Y-95840000D01*
X43159000Y-96907000D02*
X43159000Y-95840000D01*
X42559000Y-94160000D02*
X42559000Y-93484000D01*
X43800000Y-97071000D02*
X43800000Y-95840000D01*
X42319000Y-96254000D02*
X42319000Y-95840000D01*
X43239000Y-94160000D02*
X43239000Y-93060000D01*
X43600000Y-97042000D02*
X43600000Y-95840000D01*
X42879000Y-96760000D02*
X42879000Y-95840000D01*
X42599000Y-94160000D02*
X42599000Y-93448000D01*
X42359000Y-96304000D02*
X42359000Y-95840000D01*
X43079000Y-96870000D02*
X43079000Y-95840000D01*
X42159000Y-96013000D02*
X42159000Y-93987000D01*
X42679000Y-96619000D02*
X42679000Y-95840000D01*
X42559000Y-96516000D02*
X42559000Y-95840000D01*
X43480000Y-97016000D02*
X43480000Y-95840000D01*
X43279000Y-96954000D02*
X43279000Y-95840000D01*
X43119000Y-96889000D02*
X43119000Y-95840000D01*
X43360000Y-96982000D02*
X43360000Y-95840000D01*
X43520000Y-97025000D02*
X43520000Y-95840000D01*
X42199000Y-94160000D02*
X42199000Y-93920000D01*
X44000000Y-97080000D02*
X44000000Y-92920000D01*
X43720000Y-94160000D02*
X43720000Y-92938000D01*
X43600000Y-94160000D02*
X43600000Y-92958000D01*
X43199000Y-94160000D02*
X43199000Y-93076000D01*
X43400000Y-94160000D02*
X43400000Y-93006000D01*
X42959000Y-96808000D02*
X42959000Y-95840000D01*
X43440000Y-94160000D02*
X43440000Y-92995000D01*
X42759000Y-94160000D02*
X42759000Y-93320000D01*
X43680000Y-97056000D02*
X43680000Y-95840000D01*
X43480000Y-94160000D02*
X43480000Y-92984000D01*
X42999000Y-94160000D02*
X42999000Y-93170000D01*
X43800000Y-94160000D02*
X43800000Y-92929000D01*
X43560000Y-97034000D02*
X43560000Y-95840000D01*
X42519000Y-94160000D02*
X42519000Y-93522000D01*
X42639000Y-96587000D02*
X42639000Y-95840000D01*
X42479000Y-94160000D02*
X42479000Y-93562000D01*
X43239000Y-96940000D02*
X43239000Y-95840000D01*
X41919000Y-95370000D02*
X41919000Y-94630000D01*
X43079000Y-94160000D02*
X43079000Y-93130000D01*
X42679000Y-94160000D02*
X42679000Y-93381000D01*
X43320000Y-96968000D02*
X43320000Y-95840000D01*
X43680000Y-94160000D02*
X43680000Y-92944000D01*
X42199000Y-96080000D02*
X42199000Y-95840000D01*
X42279000Y-96200000D02*
X42279000Y-95840000D01*
X43320000Y-94160000D02*
X43320000Y-93032000D01*
X43640000Y-97050000D02*
X43640000Y-95840000D01*
X43920000Y-97079000D02*
X43920000Y-92921000D01*
X42519000Y-96478000D02*
X42519000Y-95840000D01*
X46269801Y-96195000D02*
X45869801Y-96195000D01*
X42919000Y-94160000D02*
X42919000Y-93215000D01*
X41999000Y-95664000D02*
X41999000Y-94336000D01*
X46120000Y-95000000D02*
G75*
G03*
X46120000Y-95000000I-2120000J0D01*
G01*
%TO.C,J21*%
X233730000Y-28670000D02*
X233730000Y-31270000D01*
X231130000Y-79590000D02*
X236330000Y-79590000D01*
X231130000Y-28670000D02*
X233730000Y-28670000D01*
X236330000Y-28670000D02*
X236330000Y-30000000D01*
X235000000Y-28670000D02*
X236330000Y-28670000D01*
X236330000Y-31270000D02*
X236330000Y-79590000D01*
X233730000Y-31270000D02*
X236330000Y-31270000D01*
X231130000Y-28670000D02*
X231130000Y-79590000D01*
%TO.C,J13*%
X156330000Y-31270000D02*
X156330000Y-79590000D01*
X151130000Y-28670000D02*
X153730000Y-28670000D01*
X153730000Y-28670000D02*
X153730000Y-31270000D01*
X153730000Y-31270000D02*
X156330000Y-31270000D01*
X151130000Y-79590000D02*
X156330000Y-79590000D01*
X155000000Y-28670000D02*
X156330000Y-28670000D01*
X156330000Y-28670000D02*
X156330000Y-30000000D01*
X151130000Y-28670000D02*
X151130000Y-79590000D01*
%TO.C,J10*%
X111130000Y-144590000D02*
X116330000Y-144590000D01*
X111130000Y-93670000D02*
X111130000Y-144590000D01*
X116330000Y-96270000D02*
X116330000Y-144590000D01*
X115000000Y-93670000D02*
X116330000Y-93670000D01*
X111130000Y-93670000D02*
X113730000Y-93670000D01*
X113730000Y-96270000D02*
X116330000Y-96270000D01*
X116330000Y-93670000D02*
X116330000Y-95000000D01*
X113730000Y-93670000D02*
X113730000Y-96270000D01*
%TO.C,J2*%
X260500000Y-30000000D02*
G75*
G03*
X260500000Y-30000000I-5500000J0D01*
G01*
%TO.C,J1*%
X260500000Y-50000000D02*
G75*
G03*
X260500000Y-50000000I-5500000J0D01*
G01*
%TO.C,C2*%
X43480000Y-32016000D02*
X43480000Y-30840000D01*
X43079000Y-29160000D02*
X43079000Y-28130000D01*
X43680000Y-32056000D02*
X43680000Y-30840000D01*
X42159000Y-31013000D02*
X42159000Y-28987000D01*
X42959000Y-31808000D02*
X42959000Y-30840000D01*
X42599000Y-31552000D02*
X42599000Y-30840000D01*
X43720000Y-32062000D02*
X43720000Y-30840000D01*
X43800000Y-32071000D02*
X43800000Y-30840000D01*
X43239000Y-31940000D02*
X43239000Y-30840000D01*
X42959000Y-29160000D02*
X42959000Y-28192000D01*
X43079000Y-31870000D02*
X43079000Y-30840000D01*
X42199000Y-29160000D02*
X42199000Y-28920000D01*
X43320000Y-31968000D02*
X43320000Y-30840000D01*
X42719000Y-29160000D02*
X42719000Y-28350000D01*
X42199000Y-31080000D02*
X42199000Y-30840000D01*
X42759000Y-31680000D02*
X42759000Y-30840000D01*
X42999000Y-29160000D02*
X42999000Y-28170000D01*
X43279000Y-29160000D02*
X43279000Y-28046000D01*
X43760000Y-29160000D02*
X43760000Y-27933000D01*
X42599000Y-29160000D02*
X42599000Y-28448000D01*
X42639000Y-31587000D02*
X42639000Y-30840000D01*
X42759000Y-29160000D02*
X42759000Y-28320000D01*
X42239000Y-31142000D02*
X42239000Y-30840000D01*
X44000000Y-32080000D02*
X44000000Y-27920000D01*
X43440000Y-29160000D02*
X43440000Y-27995000D01*
X43239000Y-29160000D02*
X43239000Y-28060000D01*
X42479000Y-29160000D02*
X42479000Y-28562000D01*
X42999000Y-31830000D02*
X42999000Y-30840000D01*
X42359000Y-31304000D02*
X42359000Y-30840000D01*
X43400000Y-31994000D02*
X43400000Y-30840000D01*
X42559000Y-29160000D02*
X42559000Y-28484000D01*
X43560000Y-32034000D02*
X43560000Y-30840000D01*
X43920000Y-32079000D02*
X43920000Y-27921000D01*
X43600000Y-32042000D02*
X43600000Y-30840000D01*
X42919000Y-29160000D02*
X42919000Y-28215000D01*
X42919000Y-31785000D02*
X42919000Y-30840000D01*
X42879000Y-31760000D02*
X42879000Y-30840000D01*
X43159000Y-29160000D02*
X43159000Y-28093000D01*
X42119000Y-30940000D02*
X42119000Y-29060000D01*
X42399000Y-31351000D02*
X42399000Y-30840000D01*
X43720000Y-29160000D02*
X43720000Y-27938000D01*
X42679000Y-29160000D02*
X42679000Y-28381000D01*
X43480000Y-29160000D02*
X43480000Y-27984000D01*
X42879000Y-29160000D02*
X42879000Y-28240000D01*
X43199000Y-31924000D02*
X43199000Y-30840000D01*
X46269801Y-31195000D02*
X45869801Y-31195000D01*
X42519000Y-29160000D02*
X42519000Y-28522000D01*
X42479000Y-31438000D02*
X42479000Y-30840000D01*
X42439000Y-31396000D02*
X42439000Y-30840000D01*
X42319000Y-29160000D02*
X42319000Y-28746000D01*
X41919000Y-30370000D02*
X41919000Y-29630000D01*
X43199000Y-29160000D02*
X43199000Y-28076000D01*
X42559000Y-31516000D02*
X42559000Y-30840000D01*
X43640000Y-32050000D02*
X43640000Y-30840000D01*
X42839000Y-31735000D02*
X42839000Y-30840000D01*
X43880000Y-32077000D02*
X43880000Y-27923000D01*
X43360000Y-29160000D02*
X43360000Y-28018000D01*
X42799000Y-31708000D02*
X42799000Y-30840000D01*
X42279000Y-31200000D02*
X42279000Y-30840000D01*
X43119000Y-31889000D02*
X43119000Y-30840000D01*
X42079000Y-30859000D02*
X42079000Y-29141000D01*
X46069801Y-31395000D02*
X46069801Y-30995000D01*
X42839000Y-29160000D02*
X42839000Y-28265000D01*
X42439000Y-29160000D02*
X42439000Y-28604000D01*
X42679000Y-31619000D02*
X42679000Y-30840000D01*
X43039000Y-31851000D02*
X43039000Y-30840000D01*
X43640000Y-29160000D02*
X43640000Y-27950000D01*
X43400000Y-29160000D02*
X43400000Y-28006000D01*
X42399000Y-29160000D02*
X42399000Y-28649000D01*
X42639000Y-29160000D02*
X42639000Y-28413000D01*
X43600000Y-29160000D02*
X43600000Y-27958000D01*
X43800000Y-29160000D02*
X43800000Y-27929000D01*
X42039000Y-30768000D02*
X42039000Y-29232000D01*
X43039000Y-29160000D02*
X43039000Y-28149000D01*
X43680000Y-29160000D02*
X43680000Y-27944000D01*
X43119000Y-29160000D02*
X43119000Y-28111000D01*
X41999000Y-30664000D02*
X41999000Y-29336000D01*
X42519000Y-31478000D02*
X42519000Y-30840000D01*
X42719000Y-31650000D02*
X42719000Y-30840000D01*
X43520000Y-29160000D02*
X43520000Y-27975000D01*
X43279000Y-31954000D02*
X43279000Y-30840000D01*
X42279000Y-29160000D02*
X42279000Y-28800000D01*
X43360000Y-31982000D02*
X43360000Y-30840000D01*
X42799000Y-29160000D02*
X42799000Y-28292000D01*
X43560000Y-29160000D02*
X43560000Y-27966000D01*
X43840000Y-32074000D02*
X43840000Y-27926000D01*
X43960000Y-32080000D02*
X43960000Y-27920000D01*
X43440000Y-32005000D02*
X43440000Y-30840000D01*
X42239000Y-29160000D02*
X42239000Y-28858000D01*
X43159000Y-31907000D02*
X43159000Y-30840000D01*
X43760000Y-32067000D02*
X43760000Y-30840000D01*
X42359000Y-29160000D02*
X42359000Y-28696000D01*
X41959000Y-30537000D02*
X41959000Y-29463000D01*
X43520000Y-32025000D02*
X43520000Y-30840000D01*
X42319000Y-31254000D02*
X42319000Y-30840000D01*
X43320000Y-29160000D02*
X43320000Y-28032000D01*
X46120000Y-30000000D02*
G75*
G03*
X46120000Y-30000000I-2120000J0D01*
G01*
%TO.C,J11*%
X131130000Y-28670000D02*
X131130000Y-79590000D01*
X131130000Y-28670000D02*
X133730000Y-28670000D01*
X136330000Y-28670000D02*
X136330000Y-30000000D01*
X133730000Y-28670000D02*
X133730000Y-31270000D01*
X135000000Y-28670000D02*
X136330000Y-28670000D01*
X133730000Y-31270000D02*
X136330000Y-31270000D01*
X136330000Y-31270000D02*
X136330000Y-79590000D01*
X131130000Y-79590000D02*
X136330000Y-79590000D01*
%TO.C,J12*%
X133730000Y-93670000D02*
X133730000Y-96270000D01*
X136330000Y-93670000D02*
X136330000Y-95000000D01*
X131130000Y-93670000D02*
X131130000Y-144590000D01*
X133730000Y-96270000D02*
X136330000Y-96270000D01*
X136330000Y-96270000D02*
X136330000Y-144590000D01*
X131130000Y-93670000D02*
X133730000Y-93670000D01*
X135000000Y-93670000D02*
X136330000Y-93670000D01*
X131130000Y-144590000D02*
X136330000Y-144590000D01*
%TO.C,C1*%
X242160000Y-32361000D02*
X241413000Y-32361000D01*
X242160000Y-32241000D02*
X241320000Y-32241000D01*
X242160000Y-32761000D02*
X241858000Y-32761000D01*
X245056000Y-31320000D02*
X243840000Y-31320000D01*
X242160000Y-32481000D02*
X241522000Y-32481000D01*
X242160000Y-32521000D02*
X241562000Y-32521000D01*
X244889000Y-31881000D02*
X243840000Y-31881000D01*
X244870000Y-31921000D02*
X243840000Y-31921000D01*
X244395000Y-28930199D02*
X243995000Y-28930199D01*
X244680000Y-32241000D02*
X243840000Y-32241000D01*
X242160000Y-32721000D02*
X241800000Y-32721000D01*
X242160000Y-32081000D02*
X241215000Y-32081000D01*
X244968000Y-31680000D02*
X243840000Y-31680000D01*
X242160000Y-32641000D02*
X241696000Y-32641000D01*
X242160000Y-31480000D02*
X240975000Y-31480000D01*
X245062000Y-31280000D02*
X243840000Y-31280000D01*
X242160000Y-31360000D02*
X240950000Y-31360000D01*
X242160000Y-31761000D02*
X241060000Y-31761000D01*
X242160000Y-32281000D02*
X241350000Y-32281000D01*
X242160000Y-31200000D02*
X240929000Y-31200000D01*
X242160000Y-31721000D02*
X241046000Y-31721000D01*
X243859000Y-32921000D02*
X242141000Y-32921000D01*
X242160000Y-31680000D02*
X241032000Y-31680000D01*
X244785000Y-32081000D02*
X243840000Y-32081000D01*
X243664000Y-33001000D02*
X242336000Y-33001000D01*
X244552000Y-32401000D02*
X243840000Y-32401000D01*
X242160000Y-32441000D02*
X241484000Y-32441000D01*
X244254000Y-32681000D02*
X243840000Y-32681000D01*
X244954000Y-31721000D02*
X243840000Y-31721000D01*
X242160000Y-32681000D02*
X241746000Y-32681000D01*
X244478000Y-32481000D02*
X243840000Y-32481000D01*
X245080000Y-31000000D02*
X240920000Y-31000000D01*
X245079000Y-31080000D02*
X240921000Y-31080000D01*
X244907000Y-31841000D02*
X243840000Y-31841000D01*
X242160000Y-31921000D02*
X241130000Y-31921000D01*
X244851000Y-31961000D02*
X243840000Y-31961000D01*
X243768000Y-32961000D02*
X242232000Y-32961000D01*
X244760000Y-32121000D02*
X243840000Y-32121000D01*
X242160000Y-31400000D02*
X240958000Y-31400000D01*
X242160000Y-31240000D02*
X240933000Y-31240000D01*
X242160000Y-32001000D02*
X241170000Y-32001000D01*
X242160000Y-31961000D02*
X241149000Y-31961000D01*
X244650000Y-32281000D02*
X243840000Y-32281000D01*
X244830000Y-32001000D02*
X243840000Y-32001000D01*
X244587000Y-32361000D02*
X243840000Y-32361000D01*
X244982000Y-31640000D02*
X243840000Y-31640000D01*
X242160000Y-32601000D02*
X241649000Y-32601000D01*
X245071000Y-31200000D02*
X243840000Y-31200000D01*
X244808000Y-32041000D02*
X243840000Y-32041000D01*
X245050000Y-31360000D02*
X243840000Y-31360000D01*
X245025000Y-31480000D02*
X243840000Y-31480000D01*
X245077000Y-31120000D02*
X240923000Y-31120000D01*
X244940000Y-31761000D02*
X243840000Y-31761000D01*
X242160000Y-32121000D02*
X241240000Y-32121000D01*
X245074000Y-31160000D02*
X240926000Y-31160000D01*
X244200000Y-32721000D02*
X243840000Y-32721000D01*
X242160000Y-31560000D02*
X240995000Y-31560000D01*
X244142000Y-32761000D02*
X243840000Y-32761000D01*
X245080000Y-31040000D02*
X240920000Y-31040000D01*
X244195000Y-28730199D02*
X244195000Y-29130199D01*
X242160000Y-31320000D02*
X240944000Y-31320000D01*
X242160000Y-31801000D02*
X241076000Y-31801000D01*
X242160000Y-32041000D02*
X241192000Y-32041000D01*
X242160000Y-31881000D02*
X241111000Y-31881000D01*
X244708000Y-32201000D02*
X243840000Y-32201000D01*
X242160000Y-32201000D02*
X241292000Y-32201000D01*
X242160000Y-31841000D02*
X241093000Y-31841000D01*
X242160000Y-32401000D02*
X241448000Y-32401000D01*
X242160000Y-31520000D02*
X240984000Y-31520000D01*
X245005000Y-31560000D02*
X243840000Y-31560000D01*
X245042000Y-31400000D02*
X243840000Y-31400000D01*
X244924000Y-31801000D02*
X243840000Y-31801000D01*
X244516000Y-32441000D02*
X243840000Y-32441000D01*
X242160000Y-32801000D02*
X241920000Y-32801000D01*
X242160000Y-32561000D02*
X241604000Y-32561000D01*
X244396000Y-32561000D02*
X243840000Y-32561000D01*
X244994000Y-31600000D02*
X243840000Y-31600000D01*
X244619000Y-32321000D02*
X243840000Y-32321000D01*
X243370000Y-33081000D02*
X242630000Y-33081000D01*
X244013000Y-32841000D02*
X241987000Y-32841000D01*
X244735000Y-32161000D02*
X243840000Y-32161000D01*
X242160000Y-31440000D02*
X240966000Y-31440000D01*
X245067000Y-31240000D02*
X243840000Y-31240000D01*
X243940000Y-32881000D02*
X242060000Y-32881000D01*
X243537000Y-33041000D02*
X242463000Y-33041000D01*
X244351000Y-32601000D02*
X243840000Y-32601000D01*
X244438000Y-32521000D02*
X243840000Y-32521000D01*
X242160000Y-32161000D02*
X241265000Y-32161000D01*
X244304000Y-32641000D02*
X243840000Y-32641000D01*
X244080000Y-32801000D02*
X243840000Y-32801000D01*
X245034000Y-31440000D02*
X243840000Y-31440000D01*
X242160000Y-32321000D02*
X241381000Y-32321000D01*
X242160000Y-31600000D02*
X241006000Y-31600000D01*
X242160000Y-31280000D02*
X240938000Y-31280000D01*
X245016000Y-31520000D02*
X243840000Y-31520000D01*
X242160000Y-31640000D02*
X241018000Y-31640000D01*
X245120000Y-31000000D02*
G75*
G03*
X245120000Y-31000000I-2120000J0D01*
G01*
%TO.C,J8*%
X96330000Y-96270000D02*
X96330000Y-144590000D01*
X91130000Y-93670000D02*
X91130000Y-144590000D01*
X93730000Y-96270000D02*
X96330000Y-96270000D01*
X91130000Y-93670000D02*
X93730000Y-93670000D01*
X95000000Y-93670000D02*
X96330000Y-93670000D01*
X96330000Y-93670000D02*
X96330000Y-95000000D01*
X93730000Y-93670000D02*
X93730000Y-96270000D01*
X91130000Y-144590000D02*
X96330000Y-144590000D01*
%TO.C,J17*%
X196330000Y-31270000D02*
X196330000Y-79590000D01*
X195000000Y-28670000D02*
X196330000Y-28670000D01*
X191130000Y-28670000D02*
X193730000Y-28670000D01*
X193730000Y-28670000D02*
X193730000Y-31270000D01*
X191130000Y-28670000D02*
X191130000Y-79590000D01*
X191130000Y-79590000D02*
X196330000Y-79590000D01*
X193730000Y-31270000D02*
X196330000Y-31270000D01*
X196330000Y-28670000D02*
X196330000Y-30000000D01*
%TO.C,J22*%
X233730000Y-93670000D02*
X233730000Y-96270000D01*
X236330000Y-96270000D02*
X236330000Y-144590000D01*
X233730000Y-96270000D02*
X236330000Y-96270000D01*
X231130000Y-144590000D02*
X236330000Y-144590000D01*
X236330000Y-93670000D02*
X236330000Y-95000000D01*
X231130000Y-93670000D02*
X231130000Y-144590000D01*
X231130000Y-93670000D02*
X233730000Y-93670000D01*
X235000000Y-93670000D02*
X236330000Y-93670000D01*
%TO.C,J14*%
X155000000Y-93670000D02*
X156330000Y-93670000D01*
X156330000Y-96270000D02*
X156330000Y-144590000D01*
X151130000Y-93670000D02*
X153730000Y-93670000D01*
X153730000Y-96270000D02*
X156330000Y-96270000D01*
X156330000Y-93670000D02*
X156330000Y-95000000D01*
X153730000Y-93670000D02*
X153730000Y-96270000D01*
X151130000Y-93670000D02*
X151130000Y-144590000D01*
X151130000Y-144590000D02*
X156330000Y-144590000D01*
%TO.C,J3*%
X53730000Y-31270000D02*
X56330000Y-31270000D01*
X51130000Y-79590000D02*
X56330000Y-79590000D01*
X55000000Y-28670000D02*
X56330000Y-28670000D01*
X56330000Y-31270000D02*
X56330000Y-79590000D01*
X56330000Y-28670000D02*
X56330000Y-30000000D01*
X51130000Y-28670000D02*
X51130000Y-79590000D01*
X51130000Y-28670000D02*
X53730000Y-28670000D01*
X53730000Y-28670000D02*
X53730000Y-31270000D01*
%TO.C,J15*%
X173730000Y-28670000D02*
X173730000Y-31270000D01*
X173730000Y-31270000D02*
X176330000Y-31270000D01*
X175000000Y-28670000D02*
X176330000Y-28670000D01*
X176330000Y-28670000D02*
X176330000Y-30000000D01*
X171130000Y-28670000D02*
X173730000Y-28670000D01*
X176330000Y-31270000D02*
X176330000Y-79590000D01*
X171130000Y-79590000D02*
X176330000Y-79590000D01*
X171130000Y-28670000D02*
X171130000Y-79590000D01*
%TO.C,J18*%
X191130000Y-93670000D02*
X191130000Y-144590000D01*
X193730000Y-96270000D02*
X196330000Y-96270000D01*
X191130000Y-144590000D02*
X196330000Y-144590000D01*
X196330000Y-96270000D02*
X196330000Y-144590000D01*
X191130000Y-93670000D02*
X193730000Y-93670000D01*
X196330000Y-93670000D02*
X196330000Y-95000000D01*
X195000000Y-93670000D02*
X196330000Y-93670000D01*
X193730000Y-93670000D02*
X193730000Y-96270000D01*
%TD*%
M02*
